<?xml version="1.0" encoding="UTF-8" standalone="no"?>
<!DOCTYPE svg PUBLIC "-//W3C//DTD SVG 1.1//EN" "http://www.w3.org/Graphics/SVG/1.1/DTD/svg11.dtd">
<svg width="100%" height="100%" viewBox="0 0 254 87" version="1.1" xmlns="http://www.w3.org/2000/svg" xmlns:xlink="http://www.w3.org/1999/xlink" xml:space="preserve" style="fill-rule:evenodd;clip-rule:evenodd;">
    <g transform="matrix(1,0,0,1,-370,-694)">
        <path id="GR.-L" d="M684.43,723.08L685.49,722.96L684.41,723.61L684.29,725.47L681.81,727.41L680.43,727.21L678.34,729.26L678.04,730.49L677.15,730.09L675.71,730.68L673.69,733.15L672.67,732.27L672.39,733.02L671.02,731.88L670.92,731.56L670.14,730.97L670.67,729.6L674.19,726.3L675.5,724.2L678.11,724.76L683.41,722.93L684.43,723.08ZM703.73,679.38L704.92,679.35L705.18,681.3L704.96,682.78L703.08,685.72L703.78,690.64L701.38,693.82L701.59,695.63L698.76,698.49L698.66,700.97L698.8,702.04L697.68,702.93L698.52,704.42L700.18,704.82L700.26,706.13L702.49,707.66L702.45,709.39L703.76,710.32L703.07,711.88L702.06,712.33L702.5,714.32L704.81,714.69L705.84,716.15L704.71,718.61L704.06,717.72L702.5,717.64L701.45,719.71L699.82,719.74L698.23,721.93L697.77,723.84L699.42,724.14L696.36,726.87L696.22,726.3L697.22,725.69L696.15,723.73L694.84,723.41L694.2,723.86L693.29,722.51L691.35,721.73L694.27,718.88L693.49,718.26L694.54,718.17L694.93,717.06L693.65,714.34L693.56,711.82L694.21,710.27L693.29,709.02L691.25,708.08L691.34,706.53L690.33,706.16L689.91,704.91L690.49,703.89L692.17,703.12L692.39,701.7L695.14,699.82L694.91,698.97L695.59,697.7L694.71,697.83L694.58,697.33L695.29,695.02L696.45,694.09L696.66,692.48L698.91,690.92L698.97,682.26L699.83,681.84L701.1,682.38L702.51,680.4L702.8,679.97L703.73,679.38ZM704.96,671.2L705.88,671.35L704.98,674.42L705.86,676.89L705.73,679.28L705.26,679.37L704.93,678.22L703.15,678.61L702.31,678.01L702.17,676.94L700.91,675.98L701.12,675.52L702.44,675.7L702.49,674.86L703.69,674.09L703.78,671.51L704.96,671.2ZM909.9,643.27L909.16,644L908.03,643.8L908.36,643.18L909.9,643.27ZM917.32,642.33L917.85,642.66L916.83,644.09L917.25,643.84L918.17,644.87L915.46,646.99L914.29,647.17L915.39,643.8L917.32,642.33ZM738.27,633.5L740.21,634.06L740.58,635.91L739.47,636.28L738.63,636.36L736.95,637.05L736.59,638.16L736.2,637.42L736.61,636.98L734.21,636.71L730.86,638.04L731.05,634.41L732.34,634.63L733.98,633.9L734.39,634.42L738.27,633.5ZM749.14,629.44L749.22,630.98L747.3,633.87L746.6,632.35L747.66,632.38L747.98,631.15L745.67,632.01L745.77,630.99L747.16,629.37L749.14,629.44ZM655.03,620.71L656.99,622.57L655.78,624.64L655.24,623.27L654.9,624.19L653.76,623.44L653.94,622.69L653.21,621.28L655.03,620.71ZM573.93,616.39L578.82,619.54L579.3,620.86L581.64,621.14L581.74,621.72L580.47,622.56L578.51,621.51L574.75,622.74L571.03,621.72L570.07,620.02L573.58,615.87L573.93,616.39ZM539.79,614.92L541.48,615.36L541.12,616.7L540.19,617.12L539.28,616.06L539.79,614.92ZM794.05,610.8L794.13,610.38L794.37,611.31L794.72,610.82L795.17,612.04L794.17,615.88L795.83,617.74L792.39,621.82L792.08,623.01L793,624.23L792.78,625.02L790.66,626.86L789.21,629.72L788.58,631.56L789.24,632.9L788.54,632.99L787.78,634.8L786.78,635.47L785.81,640.1L784.7,639.74L782.97,640.43L782.61,642.15L781.53,642.59L780.26,645.21L779.78,648.78L782.63,649.21L781.4,650.03L782.02,650.32L781.74,651.85L780.4,652.5L781.41,654.8L778.25,653.68L777.88,652.39L775.93,652.22L773.09,653.25L770.75,655.44L769.42,655.63L766.49,659.83L764.25,665.15L762.95,666.07L761.63,668.63L760.34,669.01L760.07,670.22L758.33,670.13L757.61,671.49L755.85,672.77L753.58,673.12L752.49,674.31L751.58,674.15L751.63,673.36L753.29,673.17L753.34,672.5L750.16,670.05L750.29,669.29L748.73,667.15L751.9,659.15L752.09,650.09L751.31,648.86L748.13,648.52L748.4,645.98L747.71,644.79L746.04,644.81L745.74,643.71L749.57,642.4L751.71,639.76L752.88,639.68L754.77,636.25L754.95,633.65L756.36,630.49L757.05,630L758.25,630.27L759.61,629.37L762.85,624.85L764.64,623.6L770.24,621.47L778.63,616.53L784.45,614.1L787.59,613.54L790.45,613.92L793.48,609.96L794.05,610.8ZM536.83,612.03L535.74,612.76L536.31,615.41L533.77,614.27L534.94,610.03L535.46,609.84L535.55,610.63L536.53,610.9L536.83,612.03ZM543.22,609.68L548.52,615.86L547.93,619.78L548.32,620.83L544.39,624.01L542.29,622.41L539.19,622.44L538.15,621.36L537.36,621.75L536.41,621.15L537.47,620.16L541.8,620.63L543.63,617.12L542.94,616.02L542.81,613.63L541.86,613L542.68,611.44L542.24,610.44L541.54,609.74L538.01,609.98L537.74,608.37L539.51,607.27L542.44,608.1L543.22,609.68ZM716.48,607.41L719.5,612.62L718.74,614.36L719.13,614.96L719.81,615.24L720.83,614.25L722.46,616.09L723.37,614.47L724.51,615.52L723.15,617.24L720.86,618.48L720.31,617.91L719.19,619.03L718.17,618.72L718.42,617.53L717.54,616.08L716.58,617.16L715.76,612.79L714.72,612.79L714.09,614.07L713.23,613.82L712.7,614.65L712.09,614.98L712.02,613.69L710.65,613.95L710.3,613.3L710.96,610.46L710.41,609.19L710.89,608.47L711.76,608.1L711.5,609.09L713.59,609.91L714.21,609.57L714.61,607.6L715.53,606.98L716.48,607.41ZM761.94,601.93L762.88,602.75L761.08,603.27L761.03,602.09L761.94,601.93ZM699.64,592.01L701.15,591.93L703.45,595.67L701.56,598.84L696.72,598.22L696.31,597.16L695.23,597.21L695.73,596.72L696.01,592.82L699.64,592.01ZM759.34,589.53L758.01,590.48L757.45,591.81L759.11,591.57L759.42,592.54L762.5,590.69L762.29,592.17L761.03,592.63L763,592.17L763.33,593.15L763.23,594.14L762.45,594.35L763.06,595.53L761.44,596.12L763.06,596.71L762.64,597.83L761.68,597.81L763.12,598.96L762.42,599.35L763.01,599.86L760.13,601.3L758.66,600.79L759.1,599.78L760.34,599.87L760.57,598.66L758.36,597.28L757.47,598.14L757.28,597.62L755.74,598.08L755.73,597.45L756.51,597.41L756.26,596.88L757.36,596.38L757.3,595.52L756.16,595.49L755.87,596.15L754.17,595.43L753.25,595.73L753.77,594.33L753.03,594.04L753.63,593.12L753.85,593.92L754.76,594.05L754.68,593.27L755.93,592.9L755.97,591.81L755.32,591.8L755.84,591.05L759.34,589.53ZM629.91,589.26L630.32,589.42L633.53,592.02L633.78,592.29L634.26,593.21L635.17,593.34L636.97,596.31L634.59,596.33L635.25,596.03L634.44,595.15L633.08,595.72L632.9,596.72L632.02,597.17L630.9,596.64L630.23,596.71L629.03,596.7L628.99,597.3L627.24,596.56L627.07,597.71L626.16,598L626.81,598.89L626.6,600.35L625.01,600.84L626.45,602.09L627.4,604.2L625.96,604.37L624.88,603.7L623.61,604.56L621.74,602.94L621.53,603.63L620.46,603.36L619.46,599.74L618.02,599L619,598.32L617.86,596.18L618.32,594.06L619.32,594.33L619.32,595.63L619.9,595.48L620.19,594.3L620.71,594.28L621.98,594.64L623.19,595.87L624.77,596.23L625,597.42L626.44,597.35L627,595.49L628.31,595.48L628.65,594.71L630.48,595.94L629.64,593.97L630.04,593.48L629.42,592.98L628.79,592.65L628.44,592.15L627.76,590.16L628.19,589.26L629.91,589.26ZM761.25,587.05L761.95,588.25L761.45,589.05L758.87,589.05L758.93,587.81L761.25,587.05ZM492.84,586.95L496.31,590.15L497.39,590.45L498.18,589.94L499.67,591.04L500.46,592.23L499.95,592.55L501.07,593.8L499.97,594.86L497.27,594.38L495.32,592.43L495.19,590.63L492.23,590.49L490.11,587.38L491.99,586.52L492.84,586.95ZM696.94,585.67L697.12,586.54L695.31,586.77L694.44,589.91L693.58,588.39L693.58,586.72L695.08,586.64L696.04,584.89L696.94,585.67ZM519.77,581.24L521.16,581.6L520.48,582.1L520.72,583.05L518.7,584.62L518.42,585.78L517.55,585.71L516.35,587.49L511.95,590.14L510.09,590.1L510.84,588.1L512.2,586.86L513.1,583.88L517.11,581.4L519.77,581.24ZM453.66,574.82L453.36,576.33L457.19,578.18L460.53,576.49L460.9,575.26L461.72,575.72L462.2,575.16L462.5,575.96L464.01,576.43L462.75,578.21L463.46,578.79L463.23,579.86L464.23,582.68L463.53,584.84L462.41,586.29L461.41,585.72L460.79,586.37L459.79,586.25L459.31,587.06L458.16,586.78L457.44,587.63L456.6,586.48L454.99,586.26L454.1,587.44L453.51,587.08L452.08,587.89L451.34,587.5L445.56,588.17L443.95,588.98L443.6,586.78L444.9,585.25L444.21,584.04L445.36,582.35L444.32,581.17L445.67,580.42L445.2,579.61L445.92,578.73L445.43,578.47L446.83,577.25L448.46,579.47L450.58,578.8L450.84,580.12L450.19,581.46L451.14,582.76L453.24,582.74L454.13,584.02L456.96,582.96L457.25,582.2L456.1,580.31L454.15,580.61L451.54,577.16L452.14,576.81L451.95,575.01L453.66,574.82ZM471.13,573.15L474.29,574.03L474.81,576.87L474.04,577.61L472.96,578.07L470.33,576.78L469.35,573.88L470.12,573.05L471.13,573.15ZM532.49,573L534.58,575.56L534.02,576.91L535.04,576.92L536.19,577.98L537.27,577.76L537.39,578.86L539.37,579.54L540.84,581.5L539.48,582.16L538.83,583.46L539.54,584.32L539.99,586.22L539.73,587.2L539.27,588.28L537.62,587.5L536.63,589.45L535.17,587.91L534.79,586.32L534,586.19L533.49,585.61L530.72,582.36L531.02,581.39L528.54,581.65L527.98,581.37L527.71,580.04L528.37,577.87L527.96,575.29L529.11,573.45L532.49,573ZM437.05,571.48L437.74,571.45L438.03,572.68L436.87,575.31L435.81,573.89L435.04,573.86L434.8,571.75L436.5,571.13L437.05,571.48ZM565.31,567.56L564.6,568.34L563.78,566.98L564.53,566.67L565.31,567.56ZM465.38,566.99L466.04,566.98L466.52,568.43L467.87,568.43L468.09,567.49L469.33,568.83L468.42,569.27L467.9,572.66L466.69,574.1L463.48,574.86L462.49,573.51L462.77,572.55L461.7,571.8L461.66,569.48L462.72,569.24L464.11,567.21L465.38,566.99ZM566.08,566.41L566.9,566.8L566.58,567.41L565.07,567.18L565.09,566.48L566.08,566.41ZM547.39,564.74L547.11,566.14L547.84,566.12L547.44,568.93L546.28,568.92L545.3,569.76L542.11,568.9L542.26,567.87L543.52,568.01L543.76,566.35L545.27,565.97L546.27,564.23L547.29,563.93L547.39,564.74ZM586.51,561.83L587.51,562.38L586.57,563.07L584.22,562.16L586.51,561.83ZM552,561.68L552.63,564.54L552.86,564.96L553.48,565.45L552.99,566.01L551.92,565.34L551.74,564.99L551.06,565.12L550.51,563.78L549.84,564.33L549.54,563.58L550.09,562.5L550.45,561.99L552,561.68ZM563.06,559.98L564.99,560.68L565.07,562.05L566.04,562.14L565.86,563.64L563.38,563.07L563.09,563.61L561.49,562.51L559.2,563.12L559.15,561.89L559.82,561.25L561.21,561.31L562.14,559.89L563.06,559.98ZM710.08,561.1L712.59,562.2L714.65,561.71L716.08,565.22L713.21,566.76L699.3,571.08L694.26,576.49L687.93,575.44L682.69,577.17L681.58,578.35L682.84,580.95L681.16,582.38L681.82,586.02L679.95,585.61L677.38,582.45L676.68,580.86L677.23,575.75L680.87,574.51L684.03,574.85L686.77,570.53L690.91,566.27L693.71,565.34L699.31,561.9L705.48,561.13L709.33,558.74L710.08,561.1ZM558.38,558.29L558.12,559.1L556.77,559.5L556.1,561.2L555.63,560.64L554.34,560.7L555.9,559.06L556.91,559.06L558.11,557.89L558.38,558.29ZM595.09,556.45L602.3,561.14L600.26,561.49L598.94,560.64L595.02,561.39L593.53,562.85L592.92,562.57L590.13,565.52L588.74,565.9L587.94,567.46L586.52,568.24L585.83,570.27L582.38,573.29L579.86,573.85L578.95,573.48L576.6,575.61L574.17,575.43L571.77,573.94L571.25,572.32L572.66,573.15L574.07,570.91L574.79,571.19L575.13,570.34L576.83,571.12L577.3,570.4L579.17,571.1L580.24,570.14L580.72,570.78L581.29,570.03L580.74,568.82L582.45,568.64L579.99,567.87L580.55,566.24L581.31,566.09L582.02,565.54L582.34,565.51L583.23,565.58L584.03,564.78L586.34,564.5L589.59,562.54L592.41,560.44L590.4,559.69L590.8,558.71L592.1,557.62L592.38,558.04L592.93,557.47L594.6,557.64L594.38,556.52L595.09,556.45ZM560.14,555.14L561.01,555.52L560.43,555.75L560.74,556.69L559.35,557.51L558.06,557.34L557.55,556.24L558.09,555.3L560.14,555.14ZM695.99,554.14L696.75,554.29L696.82,555.19L698.03,554.11L699.63,554.85L697.68,556.74L699.57,557.64L699.91,558.6L698.42,557.87L697.05,558.55L696.03,558.23L696.09,557.09L695.25,556.93L693.76,554.45L695.99,554.14ZM504.1,552.58L504.84,553.11L506.19,552.51L507.81,553.64L506.27,554.69L505.59,554.28L504.01,555.06L502.61,553.57L503.63,552.13L504.1,552.58ZM676.21,547.63L677.47,548.78L676.79,550.58L676.35,549.47L673.87,548.11L676.21,547.63ZM636.02,548.21L638.61,548.8L639.1,549.81L636.4,549.87L635.97,549.51L635.96,548.99L634.36,549.58L634.96,550.34L631.98,550.27L632.24,549.69L633.25,550.06L632.49,549.1L632.87,548.11L634.1,548.71L634.08,548.15L634.66,547.9L635.35,548.25L636.02,548.21ZM472.57,544.86L474.61,545.43L475.69,546.62L477.6,546.52L478.59,547.15L479.62,549.39L481.23,550.68L483.61,554.45L483.68,555.11L482.8,556.26L482.35,555.66L481.38,557.58L480.29,557.18L480.47,558.31L478.31,560.34L476.49,557.64L477.15,557.03L476.12,557.01L475.64,554.83L476.16,554.36L475.59,553.45L474.83,553.61L475.11,552.56L474.05,551.77L475.95,550.27L473.87,549.77L474.62,548.76L473.62,548.12L473.89,546.87L472.16,546.41L472.36,545.55L472.57,544.86ZM511.81,544.08L512.91,544.53L511.85,545.88L511.4,551.4L510.12,552.87L511.57,555.45L511.15,556.36L509.71,554.38L509.13,554.38L508.56,552.79L506.99,552.4L506.11,551.27L507.02,551.09L506.57,548.38L508.85,547.24L509.57,545.35L511.46,544.94L511.31,544.21L511.81,544.08ZM691.82,542.3L693.79,543.03L692.43,543.36L690.52,542.52L691.82,542.3ZM674.87,541.05L676.06,541.67L676.78,541.28L679.48,542.13L680.39,542.34L683.13,544.21L683.79,545.32L681.92,544.88L684.76,547.68L684.72,549.19L685.87,547.96L687.44,548.01L688.99,550.07L688.25,550.21L687.82,552.26L688.36,552.84L686.93,554.13L687.47,554.57L688.29,554.2L689.04,555.6L683.03,554.97L682.7,557.95L680.9,557.85L679.48,557.44L679.06,557.87L677.99,555.6L676.49,555.35L676.14,554.8L678.3,552.97L677.57,551.09L678.9,549.23L678.92,547.17L681.45,547.75L679,544.6L677.81,544.31L677.24,544.69L677.63,545.07L676.57,545.3L676.99,543.48L673.59,541.26L674.37,540.47L674.87,541.05ZM579.33,534.98L578.2,535.6L579.21,537.04L580.21,537.17L579.18,539.71L577.5,539.51L576.91,538.65L576.31,539.39L574.44,535.66L576.14,536.87L577.06,536.38L577.57,534.5L578.23,535.06L579.21,534.41L579.33,534.98ZM525.04,532.63L525.91,533.38L525.65,533.77L525.06,533.53L524.56,534.81L523.65,535.31L524.61,536.15L526.32,535.28L528.34,535.58L528.18,534.67L528.81,534.86L528.88,534.03L527.74,533.73L528.35,532.45L528.57,533.2L529.89,532.52L531.04,533.37L529.6,534.69L530.26,535.42L528.97,536.87L528.37,538.58L528.8,539.1L527.56,540.54L529.62,542.71L528.38,543.19L529.44,543.97L527.53,545.85L526.71,548.65L525.83,548.58L524.41,550.57L523.56,550.3L521.26,552.25L519.3,551.92L518.81,551.13L517.51,551.32L516.51,549.74L515.32,550.5L513.53,547.6L513.49,545.76L514.39,544.71L514.31,542.45L518.69,539.56L518.43,538.95L517.91,539.31L517.24,538.69L516.66,539.42L516.43,538.98L518.83,536L522.46,534.47L523.1,533.44L524.37,533.22L524.34,532.78L524.87,532.14L525.04,532.63ZM553.03,527.1L553.71,527.56L553.93,529.04L554.94,529.23L555.35,530.38L556.03,530.47L557.47,533.2L558.44,536.46L557.77,539.71L559.22,540.01L557.22,541.2L556.6,547.03L555.79,547.84L554.06,554.34L553.33,554.82L553,554.23L550.32,554.63L550.28,555.13L548.68,555.48L548.18,557.28L546.92,556.68L544.96,558.93L543.43,558.28L543.7,557.71L542.72,557.15L542.76,553.18L541.2,552.88L540.31,552L539.32,552.22L539.8,550.15L537.28,546.76L537.95,546.53L538.57,544.96L536.37,542.4L536.12,541.27L534.59,540.98L535.55,539.14L537.08,539.82L538,539.36L538.33,537.75L537.9,537.27L540.05,536.41L541.7,534.33L544,534.11L546.2,532.76L549.04,528.34L552.6,526.75L553.03,527.1ZM667.25,526.91L668.41,527.4L671.46,528.4L671.57,529.5L669.68,531.19L670.26,531.82L671.77,531.25L673.14,532.04L671.82,532.68L671.71,533.32L674.42,536.26L674.24,538.53L673.2,538.64L670.17,538.46L669.09,537.09L671.69,536.16L671.63,534.96L669.59,535.68L668.37,536.95L666.92,534.47L667.6,534.46L669,532.57L667.79,532.03L666.1,532.61L665.89,531.19L663.86,530.94L663.06,530.08L664.26,527.68L666.39,528.05L665.77,527L667.25,526.91ZM459.75,526.41L461.23,526.24L461.16,526.8L462.85,527.68L463.05,528.68L463,529.34L462.04,531.4L463.07,531.87L463.02,534.8L462.25,534.62L461.9,533.03L461.3,533.12L461.35,536.06L459.35,537.25L459.27,536.78L458.53,536.95L459.36,535.56L456.27,535.66L456.38,534.02L455.62,534.16L455.23,535.24L454.14,535.21L453.05,535.06L452.17,535.82L452.13,534.68L453.65,533.75L452.66,531.81L454.2,531.27L453.45,530.28L454.71,529.52L454.53,528.53L455.66,528.13L456.37,526.83L457.78,527.35L457.72,526.27L458.58,526.2L459.31,525.89L459.75,526.41ZM664.67,525.54L665.11,526.43L664.45,526.43L663.51,527.89L663.14,526.84L664.31,526.16L663.69,525.72L664.67,525.54ZM692.39,515.2L692.97,515.68L691.99,516.79L693.38,518.07L691.93,518.67L691.27,517.95L691.23,516.28L691.75,515.21L692.39,515.2ZM659.6,512.63L660.67,512.75L661.35,513.71L661.02,514.31L662.63,515.12L665.28,514.84L665.68,516.96L664.89,517.42L664.91,518.47L664.31,517.64L663.44,518.46L663.12,518.08L662.6,516.62L663.3,516.73L663.03,515.93L661.66,516.76L660.64,515.7L658.89,515.5L658.36,513.56L659.55,513.72L659.08,513.08L659.6,512.63ZM645.45,506.85L646.28,507.17L646.17,508.26L647.93,508.59L648.14,510.25L649.58,511.3L648.54,511.83L648.14,511.04L645.36,510.03L645.52,510.92L644.39,511.11L644.82,512.83L644.11,513.17L646.04,515.4L644.94,515.5L644.72,516.61L645.91,517.8L645.95,519.23L644.55,519.31L643.07,518.41L644.32,516.74L643.29,516.41L642.8,517.14L641.77,517.11L642.31,516.08L642.02,514.05L642.25,512.5L642.35,510.15L642.98,509.52L642.28,508.73L642.28,507.28L642.79,507.07L643.98,508.34L644.98,508L645.45,506.85ZM659.82,504.75L660.51,504.84L660.62,505.73L662.67,507.53L662,507.45L661.28,508.81L661.08,507.3L660.2,507.5L659.98,506.89L659.5,505.71L658.79,505.82L658.83,504.87L658.2,504.45L658.78,503.29L659.82,504.75ZM529.7,503.67L529.6,506.89L528.6,507.71L528.35,504.82L528.87,503.31L529.33,503.68L529.75,503.2L529.7,503.67ZM524.57,500.13L526.27,502.31L525.71,504.62L526.07,505.44L527.61,504.5L527.8,505.47L527.31,507.36L526.39,507.01L526.31,506.29L525.69,507.61L524.34,508.32L524.07,507.5L525.76,505.22L525.07,504.24L524.04,504.77L523.87,503.09L522.66,502.33L522.54,501.02L523.33,500.89L523.47,501.61L524.31,501.81L524.57,500.13ZM548.78,498.01L548.75,499.87L548.08,499.95L547.64,498.7L548.78,498.01ZM682.44,496.07L684.68,497.44L684.87,498.44L683.94,498.41L683.38,497.23L682.86,497.95L683.3,498.45L682.3,498.57L682.17,499.39L681.45,499.18L681.73,498.65L681.1,497.95L680.66,499.5L679.83,499.51L678.86,497.97L679.32,497.87L678.84,496.38L677.49,496.04L682.44,496.07ZM454.37,495.44L453.22,499.81L454.77,500.01L454.54,501.36L456.97,501.47L458.38,503.83L458.39,505.02L457.33,505.95L457.06,504.72L456.51,505.37L455.95,504.92L456.05,507.01L454.66,509.45L454.73,510.59L453.69,510.58L453.61,511.92L452.56,512.16L452.62,512.83L451.11,513.67L450.66,514.88L447.78,515.72L447.53,514.42L448.59,514.41L447.98,512.12L448.94,511.86L448.94,509.95L449.34,509.34L450.83,508.34L449.74,507.03L449.95,505.35L450.02,504.62L450.76,504.53L449.92,503.42L450.6,503.02L449.21,502.77L449.1,503.3L447.84,503.37L447.71,502.07L450.9,497.48L453.14,495.6L454.37,495.44ZM535.83,493.33L537.1,493.84L537.15,496.03L538.45,497.65L539.2,496.86L538.83,494.24L539.48,493.75L541.03,493.85L541.66,495.55L543.37,495.3L543.35,496.57L546.23,496.18L546.02,499.49L542.76,499.87L543.02,500.8L542.36,500.81L542.49,501.28L541.09,500.97L540.63,503.1L539.48,502.07L538.69,503.17L537.87,502.89L537.82,503.74L536.63,503.52L536.11,504.22L535.87,503.21L535.12,502.87L535.01,503.53L534.49,503.42L533.69,502.09L533.17,503.96L532.23,504.38L532.76,502.36L531.67,501.04L532.26,500.07L533.73,501.56L534.32,499.14L534.12,497.33L532.51,496.56L532.39,495.15L532.73,494.23L535.83,493.33ZM494.45,491.67L494.93,492.29L498.47,493.06L499.82,494.92L500.3,498.14L499.6,499.77L499,500.9L499.34,501.37L500.48,501.12L502.24,504.46L500.58,505.2L500.03,506.43L499.15,506.36L497.18,506.69L493.69,508.75L494.19,507.04L493.45,506.02L494.14,506.04L494.31,505.35L493.92,504.83L491.65,504.9L492.2,502.83L493.68,502.14L492.34,501.34L494.23,500.89L494.77,499.39L495.72,499.39L495.62,497.99L495.23,497.55L495.05,496.44L495.83,496.41L495.17,495.63L495.75,494.09L495.02,493.3L494.29,493.53L493.55,492.08L494.45,491.67ZM481.21,478.32L481.72,478.49L480.98,481.76L481.79,482.98L476.45,481.23L478.22,479.85L478.36,478.54L481.21,478.32ZM504.13,473.58L504.69,474.8L505.17,473.4L506.16,474.04L507.32,473.38L507.8,474.29L509.07,473.45L509.66,473.85L509.54,474.85L510.25,475.14L509.19,476.13L510.01,476.73L511.37,476.56L512.25,476.83L513.03,476.56L515.23,476.15L516.29,477.56L516.92,477.3L517.67,478.25L518.27,478.32L518.09,477.3L520.06,478.03L521.19,477.5L525.43,480.11L526.09,480.88L527.48,480.84L527.6,482.85L525.39,487.09L525.67,489.07L524.56,489.92L523.89,489.63L521.52,490.61L520.54,489.84L519.28,489.91L517.28,487.61L514.93,487.84L514.31,487.19L514.83,485.57L513.89,485.28L513.88,484.46L512.37,484.34L512.33,483.65L511.36,483.57L510.3,482.93L508.51,480.44L507.39,480.43L507.33,479.64L506.03,479.22L502.23,475.5L502.3,474.03L503.2,473.22L504.13,473.58ZM446.33,472.51L446.28,473.57L447.34,472.42L450.06,473.55L451.77,475.9L451.71,476.87L450.87,476.84L451.15,477.71L450.32,480.08L446.97,485L443.94,487.3L442.53,489.68L439.86,490.83L439.47,487.41L440.2,484.56L438.8,484.05L439.11,482.38L439.83,482.09L438.98,481.1L440.17,479.41L439.9,478.9L440.19,478.34L440.96,477.61L441.46,475.35L442.38,474.93L443.33,475.46L444.41,474.49L443.12,474.48L444.21,472.85L445.51,472.9L446.42,472.12L446.33,472.51ZM428.45,466.16L428.55,468.36L427.22,469.34L427.1,470.97L426.17,472.14L426.49,472.73L424.5,477L424.42,472.81L427.44,464.45L427.84,464.33L428.45,466.16ZM485.97,437.15L485.31,438.86L486.08,439.51L486.01,440.32L489.51,441.3L489.03,443.96L490.11,445.51L490.24,447.06L493.08,447.15L494.06,448.07L499.51,447.67L500.76,448.42L500.81,449.18L500.78,451.51L500.05,452.01L500.16,452.84L499.25,453.18L498.81,454.71L499.67,454.72L499.63,455.41L499.97,455.65L501.16,455.66L501.06,456.93L502.03,456.49L502.17,457.63L502.94,457.89L501.51,459.94L502.28,460.42L501,461.17L500.43,462.89L501.46,463.09L502.64,462.39L504.76,462.83L502.35,468.51L501.34,469.16L501.16,470.11L500.43,470.19L501.23,472.72L500.32,472.71L498.49,471.21L496.65,468.75L496.94,467.91L494.69,463.34L493.13,463.32L492.33,462.11L491.26,462.22L490.85,460.28L489.12,459.86L489.11,458.11L488.21,457.21L487.03,457.03L486.33,457.62L486.65,455.81L485.71,454.94L484.78,453.55L483.77,451.05L482.79,451.4L482.01,450.32L480.81,450.64L480.26,450.97L478.64,451.29L478.87,450.08L478.16,449.7L478.8,448.63L477.46,447.8L476.95,445.45L477.25,444.36L476.4,442.43L476.83,441.14L480.55,439.22L480.54,438.54L482.1,437.66L485.97,437.15Z" style="fill:rgb(255,0,0);fill-rule:nonzero;stroke:white;stroke-width:0.5px;"/>
        <path id="GR.-M" d="M421.2,784.25L425.9,785.57L426.15,786.29L425.19,787.28L425,788.76L426.66,791.55L425.84,791.93L419.38,787.72L418.21,786L420.32,785.92L420.63,784.39L421.2,784.25ZM611.41,734.07L611.43,734.81L610.43,735.43L608.39,735.23L608.07,734.67L611.41,734.07ZM611.11,731.55L611.65,732.16L611.14,733.11L609.65,733.2L609.64,732L611.11,731.55ZM524.42,719.34L527,721.03L526.21,721.62L526.28,724.02L525.17,723.4L524.52,722.83L523.69,722.96L521.22,721.94L521.23,721.39L523.03,720.37L523.63,719.53L524.42,719.34ZM391.47,694.51L394.74,697.11L393.62,698.96L394.09,700.98L395.05,704.8L395.16,710.59L399.4,712.13L401.38,712.86L408.83,713.39L410.39,714.14L414.18,714.56L416.29,713.52L417.92,713.78L419.3,713.06L419.69,709.9L420.29,709.54L421.1,710.39L422.82,709.69L421.27,706.52L422.35,705.33L423.79,705.77L423.99,704.94L426.05,704.49L430.7,706.12L433.08,711.35L431.59,713.39L431.33,715.33L430.36,715.18L429.72,715.69L429.94,716.29L429.14,716.31L424.57,714.75L422.41,714.66L420.62,715.74L420.6,716.53L422.03,716.54L425.65,718.9L428.58,718.82L429.66,720.15L431.89,721.27L433.17,721.22L433.7,719.83L434.82,720.13L436.74,718.42L438.14,720.77L437.79,723.34L438.6,723.92L438.39,730.44L440.36,731.47L445.92,732.01L447.52,731.81L448.77,730.76L451.79,730.98L452.66,729.94L455.24,729.95L456.06,730.52L456.93,730.27L458.68,730.27L463.68,729.48L469.76,727.48L473.19,724.49L476.91,724.58L477.85,723.63L481.11,723.9L483.96,724.94L485.44,724.5L486.44,725.23L488.42,725.73L489.81,725.83L493.43,725.57L493.66,724.38L494.58,724.23L497.4,726.23L499.25,725.81L500.78,726.35L501.62,725.74L502.41,724.12L503.86,725.22L504.94,724.39L506.49,724.52L506.45,726.07L507.22,726.82L508.75,726.14L509.17,727.43L508.11,729.5L508.33,731.24L509.48,733.03L513.1,733.5L518.35,732.94L518.51,732.37L521.41,732.74L522.02,734.16L524.79,733.77L525.91,734.32L538.17,733.34L539.35,733.55L539.59,734.97L540.84,736.49L544.3,738.48L548.48,738.01L552.29,736.52L553.9,735.17L556.24,735.42L557.73,734.24L564.02,732.47L566.68,733.76L570.11,733.3L572.49,733.77L574.13,733.16L573.11,735.77L570.13,737.3L570.39,738.65L569.64,741.64L570.75,742.45L570.54,743.86L571.26,745.11L568.94,746.44L568.81,748.78L569.63,749.73L568.26,751.28L569.72,753.63L569.99,756.32L570.66,756.67L571.7,756.83L572.91,756.26L573.83,757.22L577.12,758.49L578.83,757.41L580.89,753.45L581.61,753.06L582.26,753.91L584.98,751.8L585.15,750.03L587.12,750.89L589.65,750.68L591.25,748.55L592.18,749.2L594.48,748.75L595.2,748.07L594.91,747.37L596.83,745.52L599.87,745.38L600.55,746.4L602.05,746.71L604.5,745.54L605,746.07L604.14,747.71L604.45,748.21L606.82,749.12L609.55,748.53L611.23,747.28L610.77,745.8L612.48,745.45L613.25,744.74L613.89,744.44L614.81,742.88L614.45,741.4L615.31,740.54L615.64,740.02L616.51,739.68L616.67,740.61L617.34,740.8L618.19,739.74L619.26,738.95L618.97,738.2L620.43,737.78L619.73,737.25L619.64,736.71L622.05,736.01L622.28,736.96L621.31,737.51L621.78,738.36L620.52,738.59L620.16,740.25L618.11,741.5L619.2,745.1L618.57,747.72L620.48,749.73L621.62,749.93L622.81,748.78L622.86,750.64L622.02,751.58L619.66,752.01L619.27,753.89L620.11,755.51L619.75,757.88L618.28,759.67L618.99,760.74L616.73,763.37L615.41,766.7L614.31,766.44L613.32,767.95L612.01,768.68L608.75,768.74L607.53,770.1L604.73,770.99L603.11,770.78L603.26,769.6L602.38,768.48L600.28,768.1L597.75,768.37L597.02,769.01L596.15,768.19L594.71,768.41L594.36,767.23L592.36,766.28L591,767.1L588.51,766.78L580.65,768.82L577.88,770.61L574.18,770.46L571.86,769.47L570.84,770.12L566.63,768.93L564.23,770.02L558.21,769.79L553.74,771.79L551.8,771.5L549.9,772.47L545.35,771.44L542.12,771.93L538.42,770.61L534.22,772.43L530.07,772.23L529.17,773.87L526.86,775.14L526.32,774.83L522.03,776.37L521.44,775.47L517.07,775.51L513.24,777.79L512.78,777.05L509.8,776.69L508.7,776.65L507.34,777.68L506.19,778.11L503.18,777.64L501.83,777.9L500.56,777.75L499.33,777.78L497.54,778.56L490.41,776.87L487.88,777.3L486.25,778.77L484.51,778.86L482.97,779.06L482.12,778.62L480.83,779.02L480.78,777.82L482.25,777.04L482.8,775.78L482.46,774.71L482.37,773.86L481.8,771.35L482.23,770L483.31,769.23L482.68,764.57L481.33,761.49L477.41,759.65L476.99,760.16L469.59,759.52L468.08,759.9L466.69,759L465.22,759.51L464.76,757.88L461.7,754.81L457.96,753.75L455.98,754.12L452.87,752.64L452.44,751.5L450.96,750.54L449.85,749.36L447.79,749.51L446.63,750.58L444.14,749.77L440.57,751.38L437.41,750.51L435.75,750.74L432.77,748.52L428.89,749.56L427.52,749.2L427.03,748.36L423.94,748.81L422.82,748.27L421.6,749.43L419.62,749.3L417.92,749.07L416.51,748.37L414.94,746L413.78,745.38L410.86,745.35L408.18,746.19L404.72,744.41L403.28,744.72L399.56,743.33L397.92,743.49L397.19,744.42L396,745.02L393.98,745.52L393.26,744.38L388.38,744.35L386.18,745.2L385.06,744.51L383.13,744.71L382.31,744.96L380.7,745.29L378.79,744.74L378.24,745.22L377.22,744.43L377.27,741.96L373.96,740.92L373.1,739.32L371.8,739.01L371.42,737.18L372.42,736.39L372.92,735.77L374.54,735.31L374.47,734.57L372.86,733.53L373.65,732.35L373.04,731.04L373.66,729.36L373.04,728.85L374.75,727.36L374.29,725.65L376.38,724.02L376.48,721.63L375.55,721.51L375.12,720.38L375.24,719.31L376.05,719.03L377.46,716.54L377.14,715.31L376.14,714.59L376.37,713.14L376.94,710.42L377.86,708.88L377.56,707.4L377.26,706.5L377.2,705.74L378.46,706.43L379.13,703.58L378.85,701.6L380.14,704.58L379.37,705.67L379.7,708.25L380.41,708.84L380.46,713.75L381.85,714.4L382.77,715.08L384.12,715.94L387.18,715.82L389.78,714.92L390.78,710.78L390.34,708L388.9,705.19L389.66,702.87L388.79,700.05L389.04,698.47L391.47,694.51Z" style="fill:rgb(255,0,0);fill-rule:nonzero;stroke:white;stroke-width:0.5px;"/>
    </g>
</svg>
