<?xml version="1.0" encoding="utf-8"?>
<!-- Generator: Adobe Illustrator 15.1.0, SVG Export Plug-In . SVG Version: 6.00 Build 0)  -->
<!DOCTYPE svg PUBLIC "-//W3C//DTD SVG 1.1//EN" "http://www.w3.org/Graphics/SVG/1.1/DTD/svg11.dtd">
<svg version="1.1" id="Layer_1" xmlns="http://www.w3.org/2000/svg" xmlns:xlink="http://www.w3.org/1999/xlink" x="0px" y="0px"
	 width="841.89px" height="595.28px" viewBox="0 0 841.89 595.28" enable-background="new 0 0 841.89 595.28" xml:space="preserve">
<g>
	<path fill="#008CD1" d="M366.795,297.706c0.097,3.255,1.529,6.302,3.567,8.748c2.018,2.486,4.557,4.506,7.253,6.226
		c5.424,3.429,11.458,5.827,17.622,7.638c6.158,1.873,12.5,3.116,18.881,4.018c3.192,0.455,6.402,0.799,9.62,1.047
		c3.218,0.281,6.445,0.427,9.678,0.541c-6.467,0.205-12.954-0.082-19.396-0.825c-6.44-0.748-12.829-2.007-19.069-3.822
		c-6.198-1.908-12.32-4.323-17.756-7.956c-2.692-1.828-5.23-3.956-7.217-6.564C368.023,304.158,366.662,300.969,366.795,297.706z"/>
</g>
<g>
	<path fill="#008CD1" d="M364.796,298.845c0.13,3.152-1.078,6.262-2.888,8.839c-1.838,2.587-4.225,4.73-6.782,6.573
		c-5.163,3.665-11.048,6.124-17.018,8.063c-6.014,1.846-12.188,3.13-18.417,3.893c-6.229,0.759-12.509,1.054-18.767,0.848
		c3.128-0.114,6.251-0.262,9.362-0.547c3.113-0.251,6.217-0.6,9.302-1.062c6.167-0.916,12.291-2.183,18.219-4.084
		c5.935-1.841,11.727-4.279,16.88-7.739c2.562-1.732,4.951-3.767,6.826-6.231C363.413,304.966,364.696,301.989,364.796,298.845z"/>
</g>
<g>
	<path fill="#008CD1" d="M231.316,298.845c0.097,3.256,1.529,6.303,3.567,8.748c2.018,2.485,4.557,4.505,7.253,6.226
		c5.424,3.428,11.458,5.827,17.622,7.638c6.158,1.872,12.499,3.116,18.881,4.017c3.192,0.456,6.402,0.799,9.621,1.047
		c3.217,0.281,6.445,0.427,9.677,0.541c-6.467,0.206-12.954-0.082-19.396-0.824c-6.44-0.748-12.829-2.008-19.069-3.822
		c-6.197-1.908-12.319-4.324-17.756-7.956c-2.692-1.829-5.231-3.956-7.217-6.564C232.544,305.298,231.183,302.108,231.316,298.845z"
		/>
</g>
<g>
	<path fill="#008CD1" d="M228.209,298.845c0.13,3.152-1.078,6.262-2.888,8.839c-1.838,2.587-4.224,4.73-6.782,6.573
		c-5.163,3.665-11.048,6.124-17.017,8.063c-6.014,1.846-12.188,3.13-18.417,3.893c-6.229,0.759-12.509,1.054-18.767,0.848
		c3.128-0.114,6.251-0.262,9.362-0.547c3.113-0.251,6.217-0.6,9.301-1.062c6.168-0.916,12.292-2.183,18.22-4.084
		c5.934-1.841,11.727-4.279,16.879-7.739c2.562-1.732,4.952-3.767,6.826-6.231C226.826,304.966,228.109,301.989,228.209,298.845z"/>
</g>
<g>
	<path fill="#008CD1" d="M635.189,255.75c0.106,2.948,1.399,5.703,3.252,7.911c1.831,2.245,4.129,4.071,6.572,5.625
		c4.915,3.095,10.376,5.269,15.959,6.906c5.575,1.698,11.317,2.827,17.098,3.648c2.891,0.418,5.798,0.732,8.713,0.961
		c2.914,0.265,5.838,0.397,8.767,0.515c-5.859,0.205-11.738-0.047-17.577-0.713c-5.838-0.668-11.628-1.812-17.285-3.454
		c-5.616-1.734-11.167-3.924-16.094-7.223c-2.439-1.662-4.737-3.597-6.536-5.964C636.288,261.604,635.065,258.707,635.189,255.75z"
		/>
</g>
<g>
	<path fill="#008CD1" d="M631.848,255.97c0.125,2.855-0.968,5.677-2.601,8.02c-1.66,2.353-3.826,4.296-6.142,5.973
		c-4.678,3.33-10.015,5.557-15.424,7.322c-5.454,1.665-11.049,2.836-16.695,3.518c-2.824,0.333-5.658,0.568-8.495,0.702
		c-2.839,0.103-5.678,0.141-8.513,0.03c2.834-0.117,5.663-0.252,8.481-0.519c2.819-0.233,5.63-0.554,8.424-0.977
		c5.586-0.834,11.13-1.987,16.498-3.708c5.374-1.666,10.618-3.873,15.286-6.998c2.32-1.566,4.489-3.4,6.186-5.631
		C630.575,261.507,631.743,258.818,631.848,255.97z"/>
</g>
<g>
	<path fill="#008CD1" d="M504.611,255.97c0.107,2.947,1.4,5.702,3.252,7.91c1.832,2.245,4.129,4.072,6.572,5.625
		c4.916,3.096,10.377,5.269,15.959,6.906c5.576,1.697,11.318,2.826,17.098,3.647c2.891,0.418,5.799,0.732,8.713,0.961
		c2.914,0.265,5.838,0.397,8.768,0.515c-5.859,0.205-11.738-0.047-17.578-0.713c-5.838-0.668-11.627-1.812-17.285-3.453
		c-5.617-1.734-11.166-3.924-16.094-7.223c-2.439-1.662-4.736-3.598-6.535-5.965C505.711,261.823,504.488,258.926,504.611,255.97z"
		/>
</g>
<g>
	<path fill="#008CD1" d="M502.263,255.75c0.125,2.856-0.967,5.677-2.601,8.02c-1.66,2.353-3.826,4.295-6.141,5.972
		c-4.678,3.331-10.015,5.558-15.424,7.322c-5.454,1.666-11.048,2.836-16.694,3.518c-2.824,0.333-5.658,0.568-8.495,0.702
		c-2.839,0.103-5.678,0.141-8.513,0.03c2.834-0.117,5.663-0.252,8.48-0.519c2.82-0.233,5.631-0.553,8.424-0.977
		c5.586-0.834,11.13-1.987,16.498-3.708c5.374-1.666,10.618-3.873,15.286-6.997c2.319-1.567,4.488-3.401,6.185-5.632
		C500.99,261.288,502.158,258.599,502.263,255.75z"/>
</g>
<g>
	<path fill="#008CD1" d="M705.347,334.799c0.097,3.256,1.528,6.303,3.566,8.748c2.019,2.485,4.558,4.505,7.254,6.225
		c5.424,3.429,11.457,5.828,17.621,7.639c6.158,1.872,12.499,3.116,18.881,4.017c3.192,0.456,6.402,0.799,9.62,1.047
		c3.218,0.281,6.445,0.427,9.678,0.541c-6.467,0.206-12.954-0.082-19.396-0.825c-6.439-0.747-12.829-2.007-19.068-3.822
		c-6.197-1.907-12.32-4.323-17.757-7.955c-2.691-1.829-5.23-3.956-7.216-6.565C706.574,341.252,705.214,338.062,705.347,334.799z"/>
</g>
<g>
	<path fill="#008CD1" d="M701.029,334.799c0.13,3.152-1.078,6.262-2.888,8.839c-1.839,2.587-4.225,4.73-6.782,6.573
		c-5.162,3.665-11.048,6.124-17.018,8.063c-6.014,1.846-12.188,3.13-18.417,3.893c-6.229,0.759-12.509,1.054-18.767,0.848
		c3.128-0.114,6.251-0.262,9.362-0.547c3.113-0.251,6.217-0.6,9.302-1.062c6.168-0.916,12.291-2.183,18.22-4.084
		c5.935-1.841,11.728-4.279,16.88-7.739c2.562-1.732,4.952-3.767,6.826-6.231C699.646,340.92,700.93,337.943,701.029,334.799z"/>
</g>
<g>
	<path fill="#008CD1" d="M561.74,334.799c0.097,3.255,1.528,6.303,3.566,8.748c2.018,2.485,4.557,4.505,7.253,6.225
		c5.424,3.429,11.457,5.828,17.621,7.639c6.157,1.872,12.498,3.116,18.881,4.017c3.191,0.456,6.401,0.799,9.62,1.047
		c3.217,0.281,6.444,0.427,9.677,0.541c-6.467,0.206-12.954-0.082-19.395-0.824c-6.44-0.748-12.829-2.008-19.069-3.823
		c-6.197-1.907-12.319-4.323-17.755-7.955c-2.692-1.829-5.23-3.956-7.217-6.565C562.968,341.252,561.607,338.062,561.74,334.799z"/>
</g>
<g>
	<path fill="#008CD1" d="M558.633,334.799c0.13,3.152-1.078,6.261-2.888,8.839c-1.838,2.586-4.225,4.73-6.781,6.572
		c-5.163,3.666-11.049,6.125-17.018,8.064c-6.014,1.846-12.188,3.13-18.416,3.893c-6.229,0.758-12.509,1.054-18.767,0.848
		c3.128-0.114,6.251-0.262,9.362-0.547c3.113-0.251,6.217-0.6,9.302-1.063c6.167-0.915,12.291-2.182,18.219-4.083
		c5.935-1.841,11.727-4.279,16.879-7.739c2.562-1.732,4.952-3.767,6.826-6.232C557.25,340.92,558.533,337.943,558.633,334.799z"/>
</g>
<g>
	<path fill="#008CD1" d="M280,212.172c0.097,3.255,1.528,6.303,3.567,8.748c2.018,2.486,4.557,4.505,7.252,6.226
		c5.424,3.429,11.458,5.828,17.622,7.639c6.158,1.872,12.499,3.116,18.881,4.016c3.192,0.456,6.402,0.799,9.621,1.047
		c3.217,0.281,6.445,0.427,9.677,0.541c-6.467,0.206-12.954-0.082-19.396-0.825c-6.44-0.748-12.829-2.007-19.069-3.822
		c-6.197-1.908-12.319-4.324-17.756-7.956c-2.692-1.83-5.23-3.957-7.217-6.565C281.228,218.625,279.867,215.436,280,212.172z"/>
</g>
<g>
	<path fill="#008CD1" d="M275.681,211.172c0.13,3.152-1.078,6.261-2.888,8.839c-1.838,2.586-4.224,4.73-6.781,6.573
		c-5.163,3.666-11.048,6.124-17.018,8.063c-6.014,1.847-12.188,3.13-18.417,3.893c-6.23,0.758-12.51,1.054-18.767,0.848
		c3.128-0.114,6.251-0.261,9.362-0.546c3.113-0.252,6.217-0.6,9.302-1.063c6.168-0.916,12.291-2.182,18.22-4.083
		c5.934-1.841,11.727-4.279,16.879-7.739c2.562-1.732,4.952-3.767,6.826-6.232C274.298,217.293,275.581,214.316,275.681,211.172z"/>
</g>
<g>
	<path fill="#008CD1" d="M136.392,211.172c0.097,3.255,1.528,6.303,3.567,8.748c2.018,2.486,4.557,4.505,7.253,6.226
		c5.424,3.429,11.458,5.828,17.622,7.639c6.158,1.872,12.5,3.116,18.882,4.017c3.192,0.456,6.402,0.798,9.62,1.046
		c3.217,0.281,6.445,0.427,9.678,0.541c-6.467,0.206-12.954-0.082-19.396-0.825c-6.44-0.748-12.83-2.007-19.07-3.822
		c-6.197-1.908-12.319-4.324-17.756-7.956c-2.692-1.829-5.231-3.957-7.217-6.565C137.62,217.625,136.259,214.436,136.392,211.172z"
		/>
</g>
<g>
	<path fill="#008CD1" d="M133.285,211.172c0.13,3.152-1.078,6.261-2.887,8.839c-1.838,2.587-4.225,4.73-6.782,6.573
		c-5.163,3.666-11.048,6.124-17.017,8.063c-6.014,1.846-12.188,3.13-18.417,3.893c-6.229,0.758-12.509,1.054-18.767,0.848
		c3.128-0.114,6.251-0.261,9.362-0.546c3.113-0.252,6.217-0.6,9.301-1.063c6.168-0.916,12.292-2.182,18.22-4.083
		c5.934-1.841,11.727-4.279,16.879-7.739c2.563-1.733,4.952-3.767,6.826-6.232C131.902,217.293,133.185,214.316,133.285,211.172z"/>
</g>
<g>
	<path fill="#008CD1" d="M293.322,384.105c0.097,3.256,1.529,6.303,3.567,8.748c2.018,2.485,4.557,4.505,7.253,6.226
		c5.424,3.428,11.458,5.827,17.621,7.638c6.158,1.872,12.5,3.116,18.882,4.017c3.192,0.456,6.401,0.799,9.62,1.047
		c3.217,0.281,6.445,0.427,9.677,0.541c-6.466,0.206-12.954-0.082-19.395-0.825c-6.44-0.747-12.83-2.007-19.069-3.822
		c-6.197-1.907-12.32-4.323-17.756-7.955c-2.692-1.829-5.231-3.956-7.217-6.564C294.549,390.559,293.188,387.369,293.322,384.105z"
		/>
</g>
<g>
	<path fill="#008CD1" d="M289.003,384.105c0.13,3.152-1.078,6.262-2.888,8.839c-1.838,2.587-4.225,4.73-6.782,6.573
		c-5.163,3.665-11.048,6.124-17.018,8.063c-6.014,1.846-12.188,3.13-18.417,3.893c-6.229,0.759-12.509,1.054-18.767,0.848
		c3.128-0.114,6.251-0.262,9.362-0.547c3.113-0.251,6.217-0.6,9.302-1.062c6.167-0.916,12.291-2.183,18.219-4.084
		c5.934-1.841,11.727-4.279,16.879-7.739c2.563-1.732,4.952-3.767,6.826-6.231C287.62,390.227,288.903,387.25,289.003,384.105z"/>
</g>
<g>
	<path fill="#008CD1" d="M149.714,384.105c0.097,3.256,1.529,6.303,3.567,8.748c2.018,2.485,4.557,4.505,7.253,6.226
		c5.425,3.429,11.458,5.827,17.622,7.638c6.158,1.873,12.5,3.116,18.882,4.017c3.192,0.456,6.402,0.799,9.62,1.047
		c3.217,0.281,6.445,0.427,9.678,0.541c-6.467,0.206-12.954-0.082-19.396-0.824c-6.44-0.748-12.83-2.008-19.07-3.822
		c-6.197-1.908-12.32-4.324-17.756-7.956c-2.692-1.829-5.23-3.956-7.217-6.564C150.941,390.559,149.581,387.369,149.714,384.105z"/>
</g>
<g>
	<path fill="#008CD1" d="M146.607,384.105c0.13,3.152-1.078,6.262-2.888,8.839c-1.838,2.587-4.225,4.73-6.782,6.573
		c-5.163,3.665-11.048,6.124-17.017,8.063c-6.014,1.846-12.188,3.13-18.417,3.893c-6.229,0.759-12.509,1.054-18.767,0.848
		c3.128-0.114,6.251-0.262,9.362-0.547c3.113-0.251,6.217-0.6,9.301-1.062c6.168-0.916,12.292-2.183,18.22-4.084
		c5.934-1.841,11.727-4.279,16.879-7.739c2.562-1.732,4.952-3.767,6.826-6.231C145.225,390.227,146.508,387.25,146.607,384.105z"/>
</g>
<g>
	<path fill="#008CD1" d="M564.217,166.888c0.097,3.255,1.528,6.303,3.567,8.748c2.018,2.486,4.557,4.505,7.253,6.226
		c5.424,3.429,11.458,5.828,17.621,7.639c6.158,1.873,12.5,3.116,18.883,4.017c3.191,0.456,6.401,0.799,9.62,1.047
		c3.217,0.281,6.445,0.427,9.678,0.541c-6.467,0.206-12.954-0.082-19.396-0.825c-6.44-0.748-12.83-2.007-19.07-3.822
		c-6.197-1.908-12.319-4.324-17.757-7.956c-2.691-1.829-5.23-3.957-7.217-6.565C565.444,173.341,564.084,170.152,564.217,166.888z"
		/>
</g>
<g>
	<path fill="#008CD1" d="M559.899,166.888c0.13,3.152-1.078,6.261-2.888,8.839c-1.838,2.586-4.225,4.73-6.781,6.573
		c-5.163,3.666-11.049,6.125-17.018,8.064c-6.014,1.846-12.188,3.13-18.417,3.893c-6.229,0.758-12.509,1.054-18.767,0.848
		c3.128-0.114,6.251-0.261,9.362-0.546c3.113-0.252,6.217-0.6,9.302-1.063c6.168-0.916,12.291-2.182,18.22-4.083
		c5.934-1.841,11.727-4.28,16.879-7.74c2.563-1.732,4.952-3.767,6.826-6.232C558.517,173.009,559.8,170.032,559.899,166.888z"/>
</g>
<g>
	<path fill="#008CD1" d="M426.664,169.213c0.13,3.152-1.078,6.261-2.888,8.839c-1.838,2.586-4.224,4.73-6.78,6.573
		c-5.163,3.666-11.049,6.125-17.018,8.064c-6.014,1.846-12.188,3.13-18.416,3.893c-6.229,0.758-12.509,1.054-18.767,0.848
		c3.128-0.114,6.251-0.261,9.362-0.546c3.113-0.252,6.217-0.6,9.301-1.063c6.168-0.916,12.291-2.182,18.22-4.083
		c5.935-1.841,11.727-4.28,16.879-7.74c2.562-1.732,4.951-3.767,6.826-6.232C425.281,175.334,426.564,172.358,426.664,169.213z"/>
</g>
<g>
	<path fill="#008CD1" d="M622.264,417.069c0.095,3.595,1.672,6.967,3.918,9.675c2.226,2.751,5.029,4.986,8.006,6.892
		c5.989,3.796,12.655,6.445,19.463,8.45c6.804,2.063,13.808,3.438,20.857,4.425c3.525,0.498,7.07,0.872,10.625,1.141
		c3.553,0.303,7.117,0.458,10.687,0.572c-7.14,0.205-14.301-0.122-21.409-0.95c-7.108-0.834-14.16-2.224-21.045-4.23
		c-3.432-1.039-6.816-2.246-10.11-3.676c-3.286-1.438-6.508-3.067-9.487-5.092c-2.973-2.014-5.775-4.357-7.97-7.231
		C623.635,424.187,622.129,420.673,622.264,417.069z"/>
</g>
<g>
	<path fill="#008CD1" d="M617.495,417.069c0.131,3.479-1.206,6.906-3.209,9.744c-2.031,2.85-4.666,5.211-7.489,7.239
		c-5.699,4.037-12.193,6.751-18.782,8.887c-6.635,2.042-13.449,3.458-20.323,4.309c-6.875,0.846-13.806,1.182-20.715,0.976
		c3.453-0.114,6.902-0.271,10.339-0.578c3.438-0.272,6.866-0.653,10.273-1.16c6.812-1.003,13.576-2.402,20.126-4.498
		c6.554-2.038,12.955-4.731,18.645-8.562c2.829-1.919,5.466-4.171,7.534-6.898C615.984,423.835,617.396,420.542,617.495,417.069z"/>
</g>
<g>
	<path fill="#008CD1" d="M463.705,417.069c0.095,3.595,1.672,6.967,3.918,9.675c2.227,2.751,5.029,4.986,8.007,6.892
		c5.989,3.796,12.655,6.445,19.463,8.45c6.804,2.063,13.808,3.438,20.857,4.425c3.526,0.498,7.071,0.872,10.626,1.141
		c3.553,0.303,7.117,0.458,10.687,0.572c-7.14,0.205-14.301-0.122-21.41-0.95c-7.107-0.834-14.159-2.224-21.045-4.23
		c-3.432-1.039-6.816-2.246-10.11-3.676c-3.286-1.438-6.509-3.067-9.488-5.092c-2.973-2.014-5.775-4.357-7.97-7.231
		C465.076,424.187,463.57,420.673,463.705,417.069z"/>
</g>
<g>
	<path fill="#008CD1" d="M460.274,417.069c0.131,3.479-1.206,6.905-3.208,9.744c-2.031,2.85-4.666,5.211-7.489,7.239
		c-5.699,4.037-12.192,6.751-18.781,8.887c-6.636,2.042-13.449,3.458-20.323,4.309c-6.875,0.846-13.806,1.182-20.715,0.976
		c3.454-0.114,6.902-0.271,10.338-0.578c3.438-0.272,6.866-0.652,10.273-1.159c6.812-1.003,13.576-2.403,20.126-4.499
		c6.554-2.038,12.954-4.731,18.643-8.562c2.829-1.919,5.467-4.171,7.534-6.898C458.764,423.835,460.176,420.542,460.274,417.069z"/>
</g>
<g>
	<path fill="#008CD1" d="M387.131,250.305c0.11,1.784,0.907,3.424,2.045,4.732c1.115,1.335,2.507,2.42,3.987,3.339
		c2.979,1.827,6.274,3.119,9.638,4.119c3.367,1.012,6.83,1.709,10.317,2.248c1.745,0.271,3.501,0.478,5.264,0.636
		c1.761,0.192,3.529,0.292,5.303,0.408c-1.774,0.111-3.553,0.109-5.333,0.082c-1.778-0.06-3.557-0.182-5.331-0.362
		c-3.548-0.364-7.07-1.043-10.505-2.053c-3.418-1.042-6.792-2.391-9.773-4.437c-1.477-1.028-2.868-2.221-3.951-3.679
		C387.737,253.88,387.011,252.097,387.131,250.305z"/>
</g>
<g>
	<path fill="#008CD1" d="M384.762,251.305c0.121,1.731-0.526,3.466-1.498,4.914c-0.998,1.449-2.309,2.647-3.71,3.684
		c-2.83,2.065-6.075,3.438-9.368,4.499c-3.312,1.025-6.716,1.721-10.149,2.092c-1.716,0.184-3.437,0.31-5.158,0.372
		c-1.723,0.029-3.445,0.033-5.162-0.079c1.716-0.116,3.427-0.216,5.13-0.411c1.704-0.161,3.401-0.371,5.087-0.645
		c3.37-0.546,6.71-1.258,9.952-2.284c3.237-1.017,6.4-2.329,9.23-4.173c1.406-0.927,2.72-2.016,3.754-3.343
		C383.932,254.631,384.654,253.029,384.762,251.305z"/>
</g>
<g>
	<path fill="#008CD1" d="M421.259,366.651c0.109,1.783,0.907,3.424,2.045,4.732c1.115,1.335,2.506,2.42,3.986,3.339
		c2.979,1.827,6.274,3.12,9.639,4.119c3.367,1.013,6.83,1.71,10.317,2.248c1.745,0.271,3.501,0.478,5.264,0.636
		c1.761,0.193,3.529,0.293,5.303,0.408c-1.774,0.111-3.553,0.108-5.333,0.081c-1.779-0.06-3.557-0.182-5.331-0.362
		c-3.548-0.363-7.069-1.043-10.505-2.053c-3.418-1.042-6.792-2.392-9.773-4.437c-1.477-1.028-2.867-2.222-3.95-3.68
		C421.864,370.226,421.139,368.443,421.259,366.651z"/>
</g>
<g>
	<path fill="#008CD1" d="M418.889,366.651c0.121,1.731-0.525,3.466-1.497,4.914c-0.998,1.448-2.31,2.646-3.71,3.684
		c-2.83,2.065-6.075,3.438-9.368,4.499c-3.312,1.024-6.716,1.721-10.149,2.092c-1.717,0.185-3.438,0.311-5.159,0.372
		c-1.723,0.029-3.445,0.033-5.162-0.078c1.716-0.115,3.427-0.217,5.13-0.411c1.704-0.16,3.402-0.37,5.087-0.645
		c3.37-0.546,6.711-1.258,9.952-2.283c3.237-1.018,6.399-2.33,9.23-4.174c1.405-0.927,2.72-2.017,3.754-3.344
		C418.059,369.978,418.78,368.375,418.889,366.651z"/>
</g>
<g>
	<path fill="#008CD1" d="M181.347,444.003c0.111,1.335,0.717,2.547,1.58,3.508c0.839,0.985,1.882,1.784,2.992,2.46
		c2.232,1.341,4.69,2.303,7.204,3.047c2.515,0.759,5.101,1.282,7.707,1.708c1.304,0.214,2.617,0.38,3.935,0.511
		c1.316,0.165,2.641,0.252,3.969,0.367c-1.33,0.111-2.664,0.122-4,0.122c-1.335-0.032-2.67-0.113-4.002-0.237
		c-2.666-0.25-5.312-0.758-7.895-1.514c-2.567-0.786-5.105-1.804-7.339-3.364c-1.105-0.784-2.148-1.691-2.956-2.8
		C181.763,446.7,181.228,445.347,181.347,444.003z"/>
</g>
<g>
	<path fill="#008CD1" d="M179.572,444.003c0.119,1.298-0.355,2.614-1.072,3.718c-0.743,1.101-1.725,2.013-2.774,2.803
		c-2.12,1.575-4.562,2.612-7.036,3.412c-2.491,0.768-5.049,1.287-7.629,1.544c-1.29,0.126-2.582,0.21-3.874,0.244
		c-1.293,0.001-2.584-0.009-3.871-0.12c1.286-0.115,2.566-0.203,3.839-0.369c1.275-0.133,2.544-0.301,3.803-0.518
		c2.517-0.431,5.012-0.966,7.432-1.734c2.418-0.757,4.777-1.732,6.898-3.087c1.054-0.681,2.039-1.483,2.818-2.462
		C178.912,446.478,179.462,445.294,179.572,444.003z"/>
</g>
<g>
	<path fill="#008CD1" d="M115.103,278.822c0.11,1.783,0.907,3.424,2.044,4.731c1.115,1.336,2.507,2.421,3.987,3.34
		c2.979,1.827,6.274,3.119,9.638,4.119c3.367,1.012,6.83,1.709,10.318,2.247c1.745,0.271,3.501,0.478,5.263,0.636
		c1.76,0.193,3.529,0.293,5.303,0.408c-1.774,0.111-3.553,0.108-5.333,0.081c-1.779-0.06-3.557-0.182-5.331-0.362
		c-3.548-0.363-7.07-1.043-10.505-2.052c-3.418-1.042-6.792-2.392-9.773-4.437c-1.477-1.028-2.868-2.222-3.951-3.68
		C115.708,282.396,114.982,280.614,115.103,278.822z"/>
</g>
<g>
	<path fill="#008CD1" d="M698.777,211.172c0.108,2.229,1.095,4.295,2.506,5.947c1.389,1.683,3.127,3.052,4.976,4.213
		c3.716,2.316,7.836,3.958,12.054,5.184c4.208,1.291,8.545,2.143,12.91,2.782c2.183,0.327,4.379,0.575,6.582,0.76
		c2.201,0.22,4.412,0.333,6.627,0.449c-2.216,0.11-4.437,0.096-6.657,0.041c-2.22-0.087-4.438-0.25-6.649-0.487
		c-4.423-0.487-8.809-1.354-13.098-2.588c-4.252-1.324-8.461-2.982-12.189-5.501c-1.845-1.271-3.582-2.747-4.938-4.553
		C699.571,215.618,698.655,213.409,698.777,211.172z"/>
</g>
<g>
	<path fill="#008CD1" d="M695.819,211.172c0.122,2.161-0.694,4.311-1.919,6.102c-1.251,1.794-2.889,3.277-4.639,4.559
		c-3.54,2.544-7.588,4.231-11.683,5.577c-4.136,1.253-8.373,2.141-12.652,2.637c-2.14,0.241-4.285,0.409-6.434,0.499
		c-2.149,0.057-4.298,0.074-6.442-0.037c2.144-0.116,4.282-0.23,6.411-0.452c2.13-0.188,4.253-0.44,6.362-0.771
		c4.218-0.649,8.404-1.52,12.454-2.828c4.061-1.248,8.016-2.915,11.546-5.253c1.755-1.171,3.396-2.545,4.683-4.218
		C694.82,215.343,695.713,213.326,695.819,211.172z"/>
</g>
<g>
	<path fill="#008CD1" d="M701.46,392.875c0.109,1.805,0.916,3.465,2.066,4.789c1.128,1.352,2.536,2.45,4.034,3.381
		c3.015,1.85,6.348,3.157,9.752,4.169c3.408,1.024,6.911,1.729,10.44,2.272c1.766,0.273,3.543,0.482,5.326,0.642
		c1.781,0.194,3.571,0.294,5.365,0.41c-1.795,0.111-3.595,0.108-5.396,0.079c-1.8-0.061-3.599-0.185-5.394-0.368
		c-3.589-0.368-7.152-1.056-10.628-2.077c-3.457-1.054-6.871-2.419-9.887-4.486c-1.494-1.04-2.901-2.246-3.998-3.721
		C702.074,396.491,701.339,394.688,701.46,392.875z"/>
</g>
<g>
	<path fill="#008CD1" d="M699.064,392.875c0.121,1.752-0.533,3.506-1.517,4.97c-1.011,1.465-2.337,2.677-3.754,3.726
		c-2.862,2.088-6.146,3.477-9.477,4.549c-3.352,1.037-6.795,1.741-10.268,2.117c-1.736,0.188-3.477,0.315-5.219,0.378
		c-1.743,0.03-3.484,0.035-5.222-0.076c1.736-0.115,3.468-0.217,5.19-0.413c1.724-0.161,3.441-0.374,5.147-0.65
		c3.409-0.551,6.79-1.271,10.069-2.309c3.276-1.029,6.476-2.357,9.34-4.225c1.422-0.938,2.752-2.041,3.798-3.384
		C698.227,396.24,698.956,394.619,699.064,392.875z"/>
</g>
<g>
	<path fill="#008CD1" d="M225.496,174.473c0.11,1.502,0.788,2.874,1.753,3.964c0.942,1.115,2.115,2.021,3.362,2.787
		c2.511,1.522,5.28,2.606,8.111,3.446c2.832,0.853,5.745,1.441,8.679,1.909c1.468,0.235,2.946,0.416,4.429,0.557
		c1.482,0.175,2.972,0.267,4.466,0.382c-1.495,0.111-2.995,0.117-4.496,0.107c-1.5-0.042-3-0.139-4.498-0.284
		c-2.994-0.292-5.966-0.864-8.867-1.714c-2.884-0.881-5.733-2.022-8.246-3.763c-1.244-0.875-2.416-1.889-3.326-3.127
		C225.983,177.497,225.376,175.984,225.496,174.473z"/>
</g>
<g>
	<path fill="#008CD1" d="M223.499,174.473c0.12,1.459-0.419,2.932-1.23,4.163c-0.838,1.23-1.943,2.249-3.123,3.131
		c-2.384,1.757-5.125,2.919-7.905,3.816c-2.797,0.863-5.67,1.448-8.568,1.748c-1.449,0.148-2.9,0.247-4.352,0.292
		c-1.454,0.012-2.905,0.007-4.352-0.104c1.446-0.115,2.887-0.208,4.32-0.385c1.435-0.143,2.863-0.327,4.281-0.565
		c2.834-0.474,5.645-1.074,8.371-1.939c2.724-0.853,5.382-1.954,7.767-3.491c1.185-0.772,2.292-1.682,3.167-2.79
		C222.775,177.265,223.39,175.925,223.499,174.473z"/>
</g>
<g>
	<path fill="#008CD1" d="M617.816,311.234c0.111,1.335,0.717,2.547,1.58,3.508c0.84,0.984,1.882,1.784,2.991,2.459
		c2.232,1.342,4.69,2.303,7.205,3.047c2.514,0.759,5.101,1.283,7.706,1.708c1.304,0.214,2.617,0.38,3.935,0.511
		c1.317,0.165,2.642,0.252,3.97,0.367c-1.329,0.111-2.663,0.122-3.999,0.122c-1.335-0.032-2.67-0.113-4.003-0.237
		c-2.666-0.25-5.312-0.758-7.895-1.514c-2.566-0.785-5.104-1.804-7.339-3.363c-1.105-0.784-2.147-1.691-2.955-2.8
		C618.232,313.932,617.697,312.578,617.816,311.234z"/>
</g>
<g>
	<path fill="#008CD1" d="M616.042,311.234c0.119,1.298-0.355,2.614-1.072,3.718c-0.744,1.101-1.726,2.012-2.774,2.803
		c-2.12,1.575-4.562,2.611-7.036,3.411c-2.491,0.768-5.05,1.287-7.63,1.544c-1.29,0.126-2.582,0.21-3.874,0.244
		c-1.293,0.001-2.585-0.009-3.871-0.12c1.285-0.115,2.566-0.203,3.84-0.369c1.274-0.133,2.544-0.301,3.803-0.518
		c2.517-0.431,5.013-0.966,7.432-1.734c2.419-0.756,4.778-1.732,6.899-3.086c1.054-0.681,2.039-1.483,2.818-2.462
		C615.382,313.709,615.932,312.525,616.042,311.234z"/>
</g>
<g>
	<path fill="#008CD1" d="M505.305,221.202c0.112,0.938,0.549,1.768,1.168,2.421c0.602,0.669,1.34,1.205,2.112,1.674
		c1.562,0.92,3.284,1.581,5.042,2.1c3.526,1.053,7.204,1.556,10.934,1.961c-3.737,0.386-7.568,0.059-11.219-1.003
		c-1.814-0.557-3.606-1.288-5.184-2.407c-0.784-0.557-1.513-1.222-2.069-2.023C505.553,223.121,505.187,222.148,505.305,221.202z"/>
</g>
<g>
	<path fill="#008CD1" d="M504.058,221.202c0.118,0.914-0.205,1.859-0.696,2.657c-0.511,0.796-1.195,1.464-1.94,2.026
		c-1.497,1.13-3.223,1.875-4.972,2.441c-3.522,1.081-7.238,1.419-10.854,1.032c3.608-0.405,7.162-0.917,10.555-1.985
		c1.69-0.527,3.342-1.198,4.827-2.126c0.733-0.472,1.432-1.01,1.991-1.675C503.548,222.921,503.946,222.108,504.058,221.202z"/>
</g>
<g>
	<path fill="#008CD1" d="M526.704,397.13c0.24,1.197,1.197,1.912,2.154,2.469c0.983,0.547,2.06,0.951,3.161,1.271
		c2.206,0.667,4.503,1.013,6.859,1.417c-2.364,0.389-4.814,0.217-7.146-0.46c-1.157-0.357-2.304-0.833-3.302-1.579
		c-0.499-0.368-0.958-0.81-1.301-1.343C526.791,398.381,526.595,397.723,526.704,397.13z"/>
</g>
<g>
	<path fill="#008CD1" d="M525.917,397.13c0.109,0.573-0.06,1.209-0.368,1.732c-0.315,0.525-0.742,0.976-1.217,1.344
		c-0.948,0.753-2.052,1.237-3.168,1.603c-2.25,0.688-4.629,0.868-6.916,0.479c2.279-0.403,4.496-0.756,6.615-1.432
		c1.059-0.325,2.088-0.736,3.023-1.286C524.8,399.011,525.685,398.287,525.917,397.13z"/>
</g>
<g>
	<path fill="#008CD1" d="M231.482,355.707c0.122,0.7,0.445,1.3,0.923,1.77c0.452,0.484,1.006,0.866,1.582,1.205
		c1.163,0.663,2.439,1.146,3.745,1.528c2.616,0.787,5.343,1.181,8.126,1.586c-2.791,0.387-5.67,0.169-8.412-0.628
		c-1.361-0.42-2.708-0.974-3.887-1.837c-0.587-0.427-1.131-0.937-1.539-1.555C231.626,357.162,231.372,356.409,231.482,355.707z"/>
</g>
<g>
	<path fill="#008CD1" d="M230.553,355.707c0.111,0.679-0.113,1.407-0.47,2.019c-0.376,0.61-0.882,1.129-1.441,1.557
		c-1.119,0.87-2.415,1.437-3.728,1.863c-2.646,0.812-5.439,1.038-8.139,0.65c2.692-0.404,5.324-0.806,7.839-1.604
		c1.255-0.388,2.478-0.879,3.583-1.548C229.268,357.97,230.333,357.083,230.553,355.707z"/>
</g>
<g>
	<path fill="#008CD1" d="M264.768,276.244c0.24,1.197,1.197,1.913,2.154,2.469c0.984,0.547,2.06,0.951,3.161,1.271
		c2.206,0.667,4.503,1.013,6.859,1.417c-2.364,0.389-4.814,0.217-7.145-0.459c-1.158-0.358-2.304-0.833-3.303-1.58
		c-0.499-0.368-0.958-0.81-1.3-1.343C264.854,277.495,264.659,276.837,264.768,276.244z"/>
</g>
<g>
	<path fill="#008CD1" d="M263.981,276.244c0.11,0.573-0.06,1.209-0.368,1.732c-0.315,0.525-0.743,0.976-1.218,1.344
		c-0.948,0.752-2.052,1.238-3.168,1.602c-2.25,0.688-4.628,0.868-6.916,0.479c2.279-0.403,4.496-0.756,6.616-1.432
		c1.059-0.325,2.088-0.736,3.024-1.286C262.863,278.125,263.749,277.401,263.981,276.244z"/>
</g>
<g>
	<path fill="#008CD1" d="M326.774,430.067c0.24,1.197,1.197,1.913,2.153,2.469c0.984,0.547,2.06,0.951,3.161,1.271
		c2.206,0.667,4.503,1.013,6.859,1.417c-2.364,0.389-4.814,0.217-7.145-0.459c-1.157-0.358-2.304-0.833-3.302-1.579
		c-0.499-0.368-0.958-0.811-1.3-1.344C326.86,431.318,326.665,430.66,326.774,430.067z"/>
</g>
<g>
	<path fill="#008CD1" d="M325.986,430.067c0.11,0.573-0.06,1.209-0.368,1.732c-0.315,0.525-0.742,0.976-1.217,1.345
		c-0.948,0.752-2.052,1.237-3.168,1.602c-2.25,0.688-4.629,0.868-6.916,0.479c2.279-0.403,4.496-0.756,6.616-1.432
		c1.058-0.325,2.088-0.736,3.023-1.286C324.868,431.948,325.754,431.225,325.986,430.067z"/>
</g>
<g>
	<path fill="#008CD1" d="M494.903,308.656c0.24,1.197,1.197,1.912,2.154,2.469c0.984,0.547,2.061,0.951,3.162,1.271
		c2.205,0.667,4.502,1.013,6.859,1.417c-2.365,0.389-4.814,0.217-7.146-0.46c-1.156-0.357-2.303-0.833-3.301-1.579
		c-0.5-0.368-0.959-0.81-1.301-1.343C494.991,309.907,494.794,309.249,494.903,308.656z"/>
</g>
<g>
	<path fill="#008CD1" d="M494.116,308.656c0.109,0.573-0.059,1.209-0.367,1.732c-0.316,0.525-0.742,0.976-1.217,1.344
		c-0.949,0.753-2.053,1.237-3.168,1.603c-2.25,0.688-4.629,0.868-6.916,0.479c2.279-0.403,4.496-0.756,6.615-1.432
		c1.059-0.325,2.088-0.736,3.023-1.286C492.999,310.537,493.884,309.813,494.116,308.656z"/>
</g>
<g>
	<g>
		<g enable-background="new    ">
			<defs>
				<polygon id="SVGID_1_" enable-background="new    " points="605.884,308.776 602.703,243.958 638.645,244.488 641.825,309.307 
									"/>
			</defs>
			<clipPath id="SVGID_2_">
				<use xlink:href="#SVGID_1_"  overflow="visible"/>
			</clipPath>
			<g clip-path="url(#SVGID_2_)">
				<g>
					<g>
						<g>
							<path fill="#010101" d="M607.055,244.022c1.807,4.275,2.185,33.951,0.822,44.338c-0.798,6.093-1.547,13.172-2.003,20.229
								c1.606-0.021,3.219-0.014,4.834,0.01c2.992,0.044,5.999,0.148,9.011,0.258c3.004,0.105,6.012,0.212,9.012,0.256
								c4.385,0.064,8.752-0.003,13.065-0.397C636.687,275.277,613.954,248.857,607.055,244.022"/>
						</g>
					</g>
				</g>
			</g>
		</g>
	</g>
</g>
<g>
	<g>
		<g enable-background="new    ">
			<defs>
				<polygon id="SVGID_3_" enable-background="new    " points="623.916,287.17 621.285,233.542 639.986,233.817 642.617,287.446 
									"/>
			</defs>
			<clipPath id="SVGID_4_">
				<use xlink:href="#SVGID_3_"  overflow="visible"/>
			</clipPath>
			<g clip-path="url(#SVGID_4_)">
				<g>
					<g>
						<g>
							<path fill="#010101" d="M629.324,233.66c-1.953-0.029-1.766,1.721-1.721,3.941c0.058,2.475,0.472,4.255,1.567,8.539
								c-2.884-2.693-3.212-8.201-5.206-8.231c-0.191-0.002-0.397,0.045-0.622,0.149c-2.57,1.19-1.736,4.08-0.64,7.233
								c1.098,3.153,2.504,6.195,4.774,8.954c-2.375,0.467-5.531,1.756-4.503,4.926c0.416,1.286,0.976,1.665,1.617,1.674
								c0.441,0.006,0.922-0.162,1.424-0.33c0.513-0.17,1.046-0.34,1.581-0.333c0.058,0,0.115,0.003,0.173,0.009
								c1.883,0.207,3.334,2.604,5.216,2.802c1.876,0.198,2.526,4.824,2.539,8.481c0.013,2.472-1.689,4.389-3.312,4.365
								c-0.779-0.011-1.54-0.47-2.082-1.531c0,0,2.249,8.862,5.93,13.04c-1.318-3.865-1.247-8.687,0.351-11.8
								c1.592-3.114-0.228-10.132,0.552-13.187c0.78-3.063,2.979-2.161,3.438-6.923c0.465-4.762-2.66-8.089-0.666-14.11
								c1.334-4.017,0.174-5.362-1.196-5.382c-0.683-0.01-1.418,0.31-1.922,0.792c-1.506,1.457-1.727,5.039-2.242,7.864
								c-2.303-3.019-1.463-10.321-4.259-10.855C629.818,233.691,629.557,233.664,629.324,233.66"/>
						</g>
					</g>
				</g>
			</g>
		</g>
	</g>
</g>
<g>
	<g>
		<g enable-background="new    ">
			<defs>
				<polygon id="SVGID_5_" enable-background="new    " points="602.949,309.806 601.457,279.396 608.239,279.496 609.731,309.906 
									"/>
			</defs>
			<clipPath id="SVGID_6_">
				<use xlink:href="#SVGID_5_"  overflow="visible"/>
			</clipPath>
			<g clip-path="url(#SVGID_6_)">
				<g>
					<g>
						<g>
							<path fill="#010101" d="M608.011,279.493c-0.806,12.224-5.623,13.614-5.617,18.697c0.005,5.082,1.569,5.59,1.704,10.288
								c0.017,0.477-0.007,0.924-0.057,1.345c0.73-0.017,1.455-0.023,2.186-0.031c0.211-4.191-1.959-6.725-2.102-9.64
								c-0.104-2.114,1.291-5.456,1.972-5.446c0.27,0.004,0.427,0.534,0.334,1.876C608.711,291.551,609.594,285.11,608.011,279.493"
								/>
						</g>
					</g>
				</g>
			</g>
		</g>
	</g>
</g>
<g>
	<g>
		<g enable-background="new    ">
			<defs>
				<polygon id="SVGID_7_" enable-background="new    " points="607.342,308.852 605.554,272.409 637.349,272.877 639.137,309.32 
									"/>
			</defs>
			<clipPath id="SVGID_8_">
				<use xlink:href="#SVGID_7_"  overflow="visible"/>
			</clipPath>
			<g clip-path="url(#SVGID_8_)">
				<g>
					<g>
						<g>
							<path fill="#FFFFFF" d="M626.44,272.717c-5.733,0.381-11.644,6.157-16.365,10.3c-0.383,3.445-1.88,15.13-2.745,25.605
								c0.875,0.001,1.751,0.009,2.629,0.021c3.018,0.044,6.051,0.151,9.081,0.259c3.014,0.105,6.03,0.211,9.039,0.255
								c3.698,0.055,7.384,0.016,11.038-0.236C637.024,295.273,630.453,280.019,626.44,272.717"/>
						</g>
					</g>
				</g>
			</g>
		</g>
	</g>
</g>
<g>
	<path fill="#010101" d="M328.693,237.315l4.155-4.273c0,0,0.614-2.086-0.732-3.383c-1.345-1.297-10.884-8.166-10.884-8.166
		s0-0.788-1.346-1.704c-1.347-0.89-3.542-2.314-4.039-2.977l0,0c-0.498-0.662-2.693-5.978-2.693-6.868
		c0-0.916-2.223-3.892-2.984-4.808c-0.731-0.916-1.784-3.892-2.077-4.935c-0.292-1.018-2.984-5.316-3.277-6.359
		c-0.322-1.018-1.053-2.849-2.253-4.146c-1.199-1.297-3.072-3.612-3.276-4.782c-0.234-1.195-1.931-3.765-2.838-4.68
		c-0.322-0.331-1.347-2.137-2.37-3.205c-0.849-0.89-1.668-1.271-2.253,0.356c-0.761,2.06-1.785,3.358-2.546,4.528
		c-0.731,1.17-3.716,5.062-4.184,6.231c-0.439,1.17-3.716,7.402-4.623,8.954c-0.878,1.551-6.701,13.354-6.993,15.186
		c-0.322,1.806-2.253,6.207-3.599,7.784c-1.346,1.552-3.424,2.315-4.623,2.977c-1.2,0.636-5.355,2.976-6.701,3.892
		c-1.346,0.915-4.594,2.137-5.091,2.849c-0.468,0.712,0,2.798,0.614,3.688c0.585,0.916,3.248,3.18,3.131,4.604"/>
	<path fill="#FFFFFF" d="M320.616,223.578c1.112,0.179,9.626,5.266,9.304,7.962c-0.292,2.722-3.014,4.274-3.014,4.274
		s-1.814-0.305-2.282,0.355c-0.439,0.662-0.264,1.705-0.731,1.857c-0.497,0.153-1.756-0.127-1.756-0.127s-2.78-6.512-2.897-8.572
		C319.153,227.267,319.622,224.52,320.616,223.578L320.616,223.578z"/>
	<path fill="#FFFFFF" d="M259.756,236.423l-3.599-4.248c0,0-1.024-1.323,0.059-1.857c1.112-0.56,8.31-5.062,8.31-5.062
		s0.936-0.585,1.843,0.178c0.907,0.763,0.761,1.577,0.585,2.621c-0.175,1.043-2.839,9.462-2.839,9.462h-0.79l-1.756-1.45
		L259.756,236.423z M275.527,213.989c0,0-4.272,10.454-5.15,12.973c-0.849,2.543-3.599,10.378-4.36,13.786
		c-0.761,3.409-1.726,10.251-1.287,12.515c0.409,2.29,0.731,4.477,2.458,4.808c1.726,0.355,3.774-1.145,5.823-2.01
		c2.019-0.891,7.344-3.434,10.036-4.171c2.692-0.763,6.554-1.551,11.353-1.323c4.798,0.254,10.592,2.645,13.196,4.07
		c2.224,1.221,8.924,7.223,11.82,2.035c0.877-1.577,1.405-6.766,1.142-11.37c-0.235-4.604-3.746-17.374-4.945-21.875
		c-1.171-4.502-3.921-9.615-3.921-9.615l-3.98-0.051c-0.029,0-0.205,3.815-2.107,5.825c-1.93,2.035-5.792,4.986-11.996,4.934
		c-6.232-0.051-9.713-2.493-11.44-4.121c-1.756-1.602-2.809-4.731-2.604-6.69C279.565,213.684,276.171,213.938,275.527,213.989
		L275.527,213.989z"/>
</g>
<path fill="#FFFFFF" stroke="#FFFFFF" stroke-miterlimit="10" d="M542.404,348.906c-10.922,12.947-21.043,26.675-26.995,42.707
	c-2.966,8.037-6.453,20.521-6.974,29.059c-0.241,3.628-0.642,8.939,4.549,8.077c1.283-0.221,2.826-1.343,3.867-2.104
	c2.967-2.125,5.732-3.748,9.1-5.25c3.928-1.725,8.657-3.087,12.926-2.807c5.01,0.301,9.9,1.805,13.688,5.251
	c1.844,1.663,4.249,5.591,7.015,5.591c5.07,0,5.611-15.131,5.611-18.537c0-5.01-1.402-10.281-2.825-15.07
	C557.555,379.669,549.84,363.997,542.404,348.906z"/>
<path fill="#010101" d="M564.135,382.916c1.179-0.109,2.636-0.105,3.775,0.185c0.027,0.007,1.066,0.477,1.142,0.524
	c-0.745,0.971,1.495,3.219,2.433,2.601c0.166,0.157,0.285,0.39,0.376,0.616c0.6,1.559,2.17,5.249,1.652,6.785
	c-0.771,2.277-3.562,4.898-5.427,6.574c-0.884-1.408-2.719-0.992-4.137-0.738l1.031,5.076c3.828-1.538,3.351-1.857,3.461-3.756
	c3.172-1.842,5.532-3.822,7.604-7.082c1.383-2.158-1.053-5.65-1.733-7.535c-0.066-0.146-0.034-0.4,0.104-0.484
	c1.067,0.287,1.458-1.266,0.747-2.123c1.289-0.928,1.868-3.44,1.543-4.205c-0.925-2.207,5.649-1.475,7.025-2.644
	c0.461-0.399,0.174-1.562-0.019-2.031c-0.273-0.679-0.87-1.464-1.688-1.458c-0.952,0.018-6.058,2.615-6.435,2.306
	c-0.35-0.304,1.475-2.354,1.682-2.669c1.347-1.949,1.428-2.162,1.054-4.353c-0.371-2.263-3.141-0.761-4.388,0.235
	c-1.121,0.895-1.175,4.614-2.918,4.645c-1.691-0.002-2.289-2.829-2.848-4.014c-0.724-1.531-1.354-3.259-3.032-2.236
	c-1.744,1.065-0.909,2.856-0.092,4.541c0.313,0.631,0.792,1.184,1.105,1.814c0.521,1.044,1.488,4.516-0.203,5.054
	c-1.848,0.587-2.333-1.862-5.652,0.163c-0.529,0.322-0.949,0.907-1.133,1.488c-0.188,0.655-0.09,1.394,0.039,2.066
	c0.139,0.689,0.43,1.357,0.795,1.957c0.438,0.718,1.285,0.836,1.9,0.459c0.668-0.406,1.1-1.469,1.425-1.667
	C563.564,382.865,563.867,382.938,564.135,382.916"/>
<path fill="#010101" d="M542.404,349.607c-12.846,12.847-20.902,26.094-27.336,43.049c14.029-5.332,33.268-4.75,46.955,1.402
	C557.014,380.01,550.16,362.694,542.404,349.607z"/>
<path fill="none" stroke="#030303" stroke-width="4" d="M564.845,417.391c0.283-2.818,0.346-5.338,0.346-6.498
	c0-5.01-1.402-10.281-2.825-15.07c-4.811-16.153-12.525-31.825-19.961-46.916c-10.922,12.947-21.043,26.675-26.995,42.707
	c-1.659,4.497-3.482,10.387-4.857,16.199"/>
<path fill="none" stroke="#030303" stroke-width="4" d="M508.898,416.304c-0.221,1.534-0.38,3.003-0.463,4.368"/>
<path fill="none" stroke="#030303" stroke-width="4" d="M510.552,407.812c-0.688,2.912-1.266,5.804-1.653,8.491"/>
<path fill="#010101" d="M513.623,378.611c0.268,0.022,0.571-0.051,0.811,0.096c0.325,0.198,0.757,1.26,1.424,1.667
	c0.616,0.376,1.463,0.259,1.901-0.46c0.365-0.6,0.655-1.268,0.794-1.957c0.129-0.672,0.228-1.41,0.04-2.065
	c-0.185-0.581-0.603-1.167-1.134-1.489c-3.318-2.025-3.804,0.425-5.652-0.162c-1.69-0.539-0.723-4.01-0.203-5.055
	c0.314-0.63,0.793-1.184,1.106-1.813c0.817-1.685,1.651-3.477-0.093-4.541c-1.677-1.022-2.309,0.704-3.031,2.235
	c-0.559,1.186-1.157,4.013-2.848,4.014c-1.743-0.03-1.798-3.749-2.918-4.645c-1.248-0.996-4.018-2.498-4.388-0.235
	c-0.374,2.19-0.293,2.403,1.054,4.353c0.207,0.314,2.031,2.365,1.682,2.67c-0.377,0.31-5.482-2.289-6.435-2.307
	c-0.817-0.006-1.415,0.779-1.688,1.458c-0.192,0.47-0.479,1.633-0.018,2.032c1.376,1.168,7.949,0.437,7.025,2.643
	c-0.325,0.766,0.254,3.277,1.543,4.205c-0.711,0.857-0.32,2.411,0.747,2.123c0.138,0.084,0.17,0.338,0.103,0.485
	c-0.68,1.885-3.115,5.376-1.732,7.535c2.072,3.259,4.432,5.239,7.604,7.082c0.109,1.897-0.367,2.218,3.46,3.755l1.031-5.076
	c-1.417-0.254-3.253-0.67-4.137,0.739c-1.863-1.677-4.656-4.297-5.426-6.574c-0.518-1.536,1.053-5.227,1.652-6.786
	c0.091-0.227,0.209-0.459,0.375-0.615c0.938,0.618,3.179-1.631,2.434-2.602c0.075-0.047,1.113-0.518,1.141-0.523
	C510.988,378.506,512.445,378.503,513.623,378.611"/>
<g>
	<g>
		<g enable-background="new    ">
			<defs>
				<polygon id="SVGID_9_" enable-background="new    " points="177.896,349.525 178.724,284.68 214.602,278.287 213.774,343.133 
									"/>
			</defs>
			<clipPath id="SVGID_10_">
				<use xlink:href="#SVGID_9_"  overflow="visible"/>
			</clipPath>
			<g clip-path="url(#SVGID_10_)">
				<g>
					<g>
						<g>
							<path fill="#FFFFFF" d="M200.225,280.849c-7.023,11.654-13.545,23.849-17.468,37.426c-1.951,6.805-4.278,17.254-4.695,24.188
								c-0.175,2.73-0.452,6.646,2.124,6.188c0.203-0.036,0.424-0.101,0.664-0.193c0.806-0.328,1.793-1.404,2.46-2.136
								c1.891-2.043,3.652-3.66,5.79-5.249c2.275-1.664,4.968-3.163,7.463-3.607c0.244-0.044,0.487-0.077,0.727-0.101
								c3.157-0.326,6.226,0.335,8.581,2.689c1.144,1.125,2.622,4.021,4.366,3.709c3.201-0.57,3.693-12.81,3.729-15.554
								c0.051-4.035-0.781-8.12-1.625-11.819C209.47,303.917,204.762,292.167,200.225,280.849"/>
						</g>
					</g>
				</g>
			</g>
		</g>
	</g>
</g>
<g>
	<g>
		<g enable-background="new    ">
			<defs>
				<polygon id="SVGID_11_" enable-background="new    " points="213.187,324.758 213.567,295.014 231.935,291.741 231.555,321.485 
									"/>
			</defs>
			<clipPath id="SVGID_12_">
				<use xlink:href="#SVGID_11_"  overflow="visible"/>
			</clipPath>
			<g clip-path="url(#SVGID_12_)">
				<g>
					<g>
						<g>
							<path fill="#010101" d="M224.542,293.058c-0.526,0.094-0.965,0.453-1.457,0.917c-0.083,0.084-0.174,0.197-0.23,0.321
								l-0.007,0.561c0.054,0.104,0.19,0.124,0.223,0.232c0.441,1.408,0.998,5.044,0.573,6.661
								c-0.288,1.101-1.326,2.397-1.586,3.957c-0.237,1.397-0.533,3.087-0.043,3.358l-5.204,9.345
								c-0.634-1.115-1.583-1.075-2.65-0.886c-0.287,0.051-0.583,0.113-0.884,0.167l1.579,6.771
								c1.055-1.509,2.021-2.644,2.046-4.538c2.099-3.366,3.998-6.635,6.198-9.905c0.12,0.248,0.543,0.317,1.068,0.224
								c0.649-0.116,1.455-0.479,2.034-1.057c0.021-0.018,0.043-0.026,0.066-0.03c0.046-0.009,0.096,0.002,0.147-0.008
								c0.802-0.143,1.778,0.566,2.586,0.422c0.099-0.018,0.194-0.048,0.288-0.094c0.772-0.383,1.157-0.95,1.361-1.948
								c0.081-0.417-0.296-0.464-0.456-0.759c0.293-0.42,1.13,0.026,1.57-1.68c0.461-1.754-0.812-2.367-1.276-2.59
								c0.323-0.075,0.965-1.458,0.904-2.13c-0.03-0.327-0.616-1.08-0.861-1.229c-0.204-0.122-0.443-0.175-0.683-0.202
								c-0.335-0.011-0.707,0.056-1.084,0.123c-0.089,0.018-0.18,0.034-0.271,0.051c-0.443,0.079-0.89,0.129-1.293,0.026
								c-0.103-0.016-0.218-0.109-0.216-0.232c0.004-0.894,0.462-2.436,0.259-3.126c-0.459-1.642-0.702-2.482-2.152-2.722
								C224.896,293.025,224.715,293.027,224.542,293.058"/>
						</g>
					</g>
				</g>
			</g>
		</g>
	</g>
</g>
<g>
	<g>
		<g enable-background="new    ">
			<defs>
				<polygon id="SVGID_13_" enable-background="new    " points="161.348,347.518 161.679,321.637 181.579,318.091 181.248,343.972 
									"/>
			</defs>
			<clipPath id="SVGID_14_">
				<use xlink:href="#SVGID_13_"  overflow="visible"/>
			</clipPath>
			<g clip-path="url(#SVGID_14_)">
				<g>
					<g>
						<g>
							<path fill="#010101" d="M179.958,318.379c-0.923,0.165-0.993,0.646-1.494,1.627c-0.158,0.024-0.314,0.05-0.469,0.077
								c-2.109,0.376-3.917,1.104-5.976,2.752c-1.461,1.161-1.347,4.553-1.614,6.175c-0.015,0.134-0.12,0.311-0.223,0.328
								c-0.111-0.13-0.237-0.173-0.363-0.15c-0.409,0.073-0.821,0.833-0.751,1.495c-0.997,0.274-2.157,1.959-2.241,2.64
								c-0.058,0.445-0.272,0.649-0.582,0.704c-0.5,0.09-1.25-0.212-1.991-0.518c-0.745-0.301-1.479-0.604-1.946-0.521
								c-0.042,0.007-0.081,0.018-0.118,0.031c-0.379,0.146-0.624,1.108-0.678,1.52c-0.083,0.594-0.031,1.38,0.411,1.634
								c0.51,0.294,4.112,0.011,4.204,0.362c0.085,0.344-1.579,1.279-1.793,1.448c-1.377,1.015-1.488,1.148-2.032,2.908
								c-0.454,1.451,0.738,1.593,1.741,1.414c0.246-0.044,0.479-0.107,0.676-0.175c0.791-0.263,1.875-2.418,2.764-2.576
								c0.124-0.022,0.244-0.006,0.359,0.061c0.904,0.547,0.265,2.849,0.169,3.916c-0.134,1.37-0.379,2.866,0.857,2.646
								c1.292-0.23,1.449-1.833,1.585-3.362c0.042-0.567-0.027-1.133,0.022-1.71c0.069-0.887,0.655-3.522,1.627-3.696
								c0.059-0.01,0.119-0.012,0.181-0.003c1.183,0.157,0.616,2.147,3.069,1.71c0.392-0.069,0.813-0.372,1.113-0.749
								c0.321-0.424,0.514-1.01,0.671-1.555c0.158-0.562,0.234-1.152,0.241-1.714c0.009-0.684-0.404-1.038-0.858-0.958
								c-0.495,0.089-1.085,0.736-1.326,0.778c-0.178,0.032-0.313-0.118-0.463-0.188c-0.668-0.301-1.443-0.775-1.95-1.358
								l-0.436-0.763c0.721-0.476,0.296-2.853-0.403-2.728c-0.005,0.001-0.01,0.001-0.015,0.002
								c-0.032-0.169-0.016-0.382,0.007-0.578c0.209-1.358,0.614-4.623,1.408-5.597c1.184-1.453,3.555-2.505,5.112-3.15
								c-0.003,1.331,1.117,1.621,1.957,1.891l1.163-4.127C180.841,318.298,180.33,318.313,179.958,318.379"/>
						</g>
					</g>
				</g>
			</g>
		</g>
	</g>
</g>
<g>
	<g>
		<g enable-background="new    ">
			<defs>
				<polygon id="SVGID_15_" enable-background="new    " points="182.692,320.119 183.149,284.315 212.768,279.038 212.311,314.842 
									"/>
			</defs>
			<clipPath id="SVGID_16_">
				<use xlink:href="#SVGID_15_"  overflow="visible"/>
			</clipPath>
			<g clip-path="url(#SVGID_16_)">
				<g>
					<g>
						<g>
							<path fill="#010101" d="M200.39,281.244c-8.23,11.791-13.45,23.368-17.684,37.745c4.067-2.684,8.811-4.496,13.58-5.346
								c5.667-1.01,11.371-0.661,16.025,1.199C209.296,304.084,205.153,290.911,200.39,281.244"/>
						</g>
					</g>
				</g>
			</g>
		</g>
	</g>
</g>
<g>
	<g>
		<g enable-background="new    ">
			<defs>
				<polygon id="SVGID_17_" enable-background="new    " points="176.481,342.717 177.266,281.273 216.117,274.35 215.333,335.795 
									"/>
			</defs>
			<clipPath id="SVGID_18_">
				<use xlink:href="#SVGID_17_"  overflow="visible"/>
			</clipPath>
			<g clip-path="url(#SVGID_18_)">
				<g>
					<g>
						<g>
							<path fill="#010101" d="M200.559,277.123l-1.533,2.539c-6.414,10.644-13.541,23.489-17.743,38.062
								c-2.087,7.257-4.38,17.727-4.798,24.757l3.04-0.306c0.399-6.599,2.669-16.862,4.605-23.611
								c3.708-12.849,9.852-24.416,15.666-34.244c4.191,10.486,8.391,21.322,11.021,32.751c0.785,3.431,1.619,7.402,1.569,11.279
								c-0.005,0.359-0.06,3.597-0.48,7.014l3.015,0.023c0.443-3.614,0.507-6.95,0.515-7.581c0.056-4.393-0.835-8.688-1.679-12.369
								c-2.909-12.641-7.631-24.433-12.201-35.823L200.559,277.123"/>
						</g>
					</g>
				</g>
			</g>
		</g>
	</g>
</g>
<g>
	<path fill="none" d="M352.121,384.3c-0.61-4.354-5.986-6.064-11.164-5.527c-4.349,0.451-10.144,3.247-10.678,6.833
		c-0.602,4.04,3.57,7.758,8.879,7.92c4.705,0.145,9.759-1.59,11.875-4.959C351.887,387.205,352.221,385.805,352.121,384.3"/>
</g>
<path fill="#010101" d="M311.777,354.225c2.457,3.921,0.798,31.297-2.079,40.896c-1.687,5.641-3.374,12.179-4.616,18.697
	c18.317-0.314,37.016,0.775,55.301-0.373C355.044,382.66,322.033,358.594,311.777,354.225z"/>
<path fill="#010101" d="M304.093,404.93c0-2.72,4.682-7.695,3.821-3.328c3.884-4.672,5.732-10.625,3.716-15.792
	c-2.163,11.296-9.68,12.64-10.058,17.329c-0.378,4.688,1.995,5.135,1.848,9.471c-0.015,0.441-0.082,0.855-0.188,1.246
	c1.12-0.025,2.241-0.045,3.363-0.061C307.236,409.924,304.093,407.613,304.093,404.93z"/>
<path fill="#FFFFFF" d="M314.529,390.113c-0.854,3.188-4.042,13.99-6.161,23.662c16.225-0.141,32.711,0.646,48.91-0.154
	c-2.183-12.564-11.153-26.555-16.776-33.236C331.641,380.817,322.108,386.226,314.529,390.113z"/>
<path fill="#010101" d="M361.549,405.699c-0.669-2.275-5.695-5.787-3.92-2.254c-4.303-3.368-7.268-8.09-6.905-12.692
	c4.537,9.147,10.967,9.229,12.429,13.099c1.461,3.867-0.354,4.572,0.833,8.178c0.12,0.367,0.276,0.703,0.459,1.016
	c-0.916,0.134-1.83,0.273-2.744,0.416C360.228,410.312,362.21,407.943,361.549,405.699z"/>
<g>
	<path fill="#008CD1" d="M430.411,169.214c0.106,2.948,1.399,5.703,3.252,7.911c1.831,2.244,4.129,4.071,6.573,5.625
		c4.914,3.095,10.376,5.268,15.958,6.905c5.576,1.698,11.318,2.827,17.099,3.648c2.891,0.418,5.798,0.732,8.713,0.961
		c2.914,0.264,5.838,0.397,8.767,0.514c-5.859,0.205-11.738-0.047-17.577-0.712c-5.838-0.668-11.628-1.813-17.286-3.454
		c-5.616-1.734-11.166-3.924-16.094-7.222c-2.439-1.662-4.736-3.597-6.536-5.964C431.51,175.067,430.287,172.17,430.411,169.214z"/>
</g>
<radialGradient id="SVGID_19_" cx="288.4292" cy="216.5034" r="17.3627" gradientUnits="userSpaceOnUse">
	<stop  offset="0" style="stop-color:#FFFFFF"/>
	<stop  offset="0.0604" style="stop-color:#FBC9B5"/>
	<stop  offset="0.0712" style="stop-color:#FBC4B1"/>
	<stop  offset="0.1829" style="stop-color:#F6978C"/>
	<stop  offset="0.2995" style="stop-color:#F3716B"/>
	<stop  offset="0.4199" style="stop-color:#F05452"/>
	<stop  offset="0.5453" style="stop-color:#EF3D3E"/>
	<stop  offset="0.6778" style="stop-color:#EE2D31"/>
	<stop  offset="0.822" style="stop-color:#EC242A"/>
	<stop  offset="1" style="stop-color:#EC2227"/>
</radialGradient>
<ellipse fill="url(#SVGID_19_)" stroke="#010101" cx="294.086" cy="212.832" rx="11.196" ry="9.019"/>
<ellipse transform="matrix(-0.9804 0.1971 -0.1971 -0.9804 1069.8582 208.4129)" stroke="#000000" stroke-miterlimit="10" cx="524.56" cy="157.435" rx="4.083" ry="3.772"/>
<radialGradient id="SVGID_20_" cx="629.623" cy="273.2705" r="10.3294" gradientTransform="matrix(0.9143 0 0 0.8544 39.1621 43.498)" gradientUnits="userSpaceOnUse">
	<stop  offset="0" style="stop-color:#FFFFFF"/>
	<stop  offset="0.0604" style="stop-color:#FBC9B5"/>
	<stop  offset="0.0712" style="stop-color:#FBC4B1"/>
	<stop  offset="0.1829" style="stop-color:#F6978C"/>
	<stop  offset="0.2995" style="stop-color:#F3716B"/>
	<stop  offset="0.4199" style="stop-color:#F05452"/>
	<stop  offset="0.5453" style="stop-color:#EF3D3E"/>
	<stop  offset="0.6778" style="stop-color:#EE2D31"/>
	<stop  offset="0.822" style="stop-color:#EC242A"/>
	<stop  offset="1" style="stop-color:#EC2227"/>
</radialGradient>
<ellipse fill="url(#SVGID_20_)" stroke="#010101" cx="617.895" cy="275.122" rx="6.089" ry="4.584"/>
<radialGradient id="SVGID_21_" cx="138.8062" cy="321.6221" r="17.3638" gradientTransform="matrix(0.8327 0 0 0.8253 77.438 50.5571)" gradientUnits="userSpaceOnUse">
	<stop  offset="0" style="stop-color:#FFFFFF"/>
	<stop  offset="0.0604" style="stop-color:#FBC9B5"/>
	<stop  offset="0.0712" style="stop-color:#FBC4B1"/>
	<stop  offset="0.1829" style="stop-color:#F6978C"/>
	<stop  offset="0.2995" style="stop-color:#F3716B"/>
	<stop  offset="0.4199" style="stop-color:#F05452"/>
	<stop  offset="0.5453" style="stop-color:#EF3D3E"/>
	<stop  offset="0.6778" style="stop-color:#EE2D31"/>
	<stop  offset="0.822" style="stop-color:#EC242A"/>
	<stop  offset="1" style="stop-color:#EC2227"/>
</radialGradient>
<ellipse fill="url(#SVGID_21_)" stroke="#010101" cx="197.732" cy="312.953" rx="9.323" ry="7.443"/>
<g>
	<path fill="#188BCB" d="M476.061,194.926c0.11,0.438-0.007,0.944-0.235,1.359c-0.235,0.417-0.561,0.777-0.926,1.07
		c-0.727,0.599-1.58,0.979-2.441,1.263c-1.737,0.528-3.576,0.646-5.327,0.254c1.743-0.402,3.421-0.692,5.027-1.208
		c0.803-0.244,1.582-0.55,2.297-0.947C475.151,196.308,475.831,195.806,476.061,194.926z"/>
</g>
<path fill="#FFFFFF" d="M488.676,158.027c-8.357,9.907-16.102,20.411-20.656,32.679c-2.27,6.149-4.938,15.702-5.336,22.235
	c-0.185,2.776-0.491,6.84,3.48,6.181c0.981-0.169,2.162-1.028,2.959-1.61c2.271-1.626,4.387-2.868,6.963-4.018
	c3.006-1.32,6.624-2.362,9.891-2.147c3.834,0.23,7.576,1.381,10.474,4.018c1.411,1.272,3.252,4.278,5.367,4.278
	c3.88,0,4.294-11.578,4.294-14.184c0-3.833-1.072-7.867-2.162-11.532C500.269,181.566,494.365,169.574,488.676,158.027z"/>
<path fill="#010101" d="M488.676,158.563c-9.829,9.83-15.994,19.967-20.917,32.94c10.735-4.08,25.456-3.635,35.93,1.073
	C499.854,181.827,494.61,168.577,488.676,158.563z"/>
<path fill="none" stroke="#030303" d="M505.847,210.43c0.217-2.157,0.265-4.084,0.265-4.972c0-3.833-1.072-7.867-2.162-11.532
	c-3.681-12.36-9.584-24.352-15.273-35.899c-8.357,9.907-16.102,20.411-20.656,32.679c-1.27,3.441-2.664,7.947-3.717,12.395"/>
<path fill="none" stroke="#030303" d="M464.303,203.101c-0.526,2.228-0.969,4.441-1.266,6.497"/>
<radialGradient id="SVGID_22_" cx="482.9316" cy="191.9312" r="14.6448" gradientUnits="userSpaceOnUse">
	<stop  offset="0" style="stop-color:#FFFFFF"/>
	<stop  offset="0.0604" style="stop-color:#FBC9B5"/>
	<stop  offset="0.0712" style="stop-color:#FBC3B0"/>
	<stop  offset="0.1829" style="stop-color:#F6978B"/>
	<stop  offset="0.2995" style="stop-color:#F3716B"/>
	<stop  offset="0.4199" style="stop-color:#EF5553"/>
	<stop  offset="0.5453" style="stop-color:#EF3C3F"/>
	<stop  offset="0.6778" style="stop-color:#ED2E33"/>
	<stop  offset="0.822" style="stop-color:#EA262B"/>
	<stop  offset="1" style="stop-color:#EA262A"/>
</radialGradient>
<ellipse fill="url(#SVGID_22_)" stroke="#010101" stroke-width="2" cx="487.703" cy="188.834" rx="9.444" ry="7.607"/>
<g>
	<path fill="none" d="M117.48,90.81c-7.364,21.935,6.782,35.386,15.804,35.616"/>
</g>
<g>
	<path d="M445.846,153.649c0.623,4.303,1.238,8.533,2.067,12.703c0.446,2.078,0.86,4.154,1.421,6.191
		c0.525,2.043,1.102,4.069,1.807,6.045c1.369,3.955,3.017,7.825,5.333,11.242c1.167,1.693,2.49,3.286,4.097,4.563
		c1.588,1.296,3.498,2.228,5.655,2.558c-2.168,0.349-4.48-0.248-6.467-1.329c-1.984-1.111-3.704-2.648-5.146-4.371
		c-2.895-3.46-4.885-7.523-6.31-11.694c-1.398-4.19-2.299-8.513-2.698-12.868C445.194,162.338,445.227,157.956,445.846,153.649z"/>
</g>
<g>
	<path d="M525.259,152.822c0.619,4.307,0.651,8.689,0.24,13.04c-0.399,4.355-1.3,8.678-2.698,12.868
		c-1.425,4.17-3.415,8.234-6.31,11.694c-1.441,1.723-3.161,3.26-5.146,4.372c-1.986,1.081-4.299,1.677-6.467,1.329
		c2.157-0.331,4.067-1.262,5.655-2.558c1.606-1.277,2.93-2.871,4.097-4.563c2.316-3.417,3.964-7.287,5.333-11.242
		c0.704-1.976,1.281-4.001,1.807-6.045c0.561-2.037,0.974-4.113,1.421-6.191C524.021,161.355,524.636,157.125,525.259,152.822z"/>
</g>
<ellipse transform="matrix(0.9804 0.1971 -0.1971 0.9804 40.0293 -85.0862)" stroke="#000000" stroke-miterlimit="10" cx="447.562" cy="158.599" rx="4.083" ry="3.772"/>
<g>
	<path fill="#C2B59B" d="M527.299,158.344c-27.379-6.12-55.772-6.12-83.151,0c-1.69-7.561-3.38-15.121-5.07-22.682
		c30.719-6.866,62.573-6.866,93.292,0C530.679,143.223,528.989,150.783,527.299,158.344z"/>
	<path fill="none" stroke="#000000" stroke-miterlimit="10" d="M527.299,158.344c-27.379-6.12-55.772-6.12-83.151,0
		c-1.69-7.561-3.38-15.121-5.07-22.682c30.719-6.866,62.573-6.866,93.292,0C530.679,143.223,528.989,150.783,527.299,158.344z"/>
</g>
<g>
	<g>
		<path fill="#BE1E2D" d="M446.311,147.532c-0.597-2.669,0.676-5.682,4.167-6.355c2.7-0.521,4.649,0.916,5.035,3.21
			c0.362,2.152-0.413,3.592-2.029,3.889c-0.761,0.14-1.202-0.081-1.395-0.496c-0.015,0.003-0.021,0.005-0.036,0.008
			c-0.267,0.442-0.705,0.893-1.343,1.02c-1.047,0.209-1.774-0.384-2.016-1.535c-0.403-1.926,0.297-3.46,1.884-3.769
			c0.595-0.116,1.096,0.021,1.4,0.208c0.02-0.004,0.031-0.006,0.051-0.01c0.003-0.147,0.006-0.219,0.009-0.366
			c0.353-0.066,0.528-0.099,0.881-0.163c-0.023,1.536-0.034,2.302-0.046,3.836c-0.006,0.44,0.173,0.663,0.634,0.579
			c1.041-0.19,1.508-1.255,1.207-2.992c-0.346-1.997-1.731-3.206-4.134-2.742c-2.94,0.568-4.036,2.96-3.481,5.491
			c0.488,2.227,2.033,3.31,4.624,2.803c1.099-0.215,2.005-0.674,2.513-0.949c0.043,0.236,0.062,0.354,0.104,0.59
			c-0.629,0.418-1.479,0.807-2.502,1.007C448.899,151.372,446.905,150.189,446.311,147.532z M451.979,147.202
			c-0.012-1.116-0.019-1.674-0.024-2.791c-0.239-0.187-0.685-0.31-1.24-0.202c-1.174,0.229-1.383,1.401-1.085,2.858
			c0.161,0.788,0.568,1.12,1.185,0.997C451.37,147.955,451.723,147.568,451.979,147.202z"/>
		<path fill="#BE1E2D" d="M456.697,147.934c-0.049-0.298-0.073-0.447-0.122-0.746c0.369,0.048,0.862,0.102,1.457,0.009
			c0.921-0.145,1.228-0.686,1.104-1.516c-0.353-2.368-0.53-3.551-0.884-5.918c0.409-0.061,0.614-0.09,1.023-0.149
			c0.341,2.375,0.511,3.561,0.852,5.935c0.171,1.187-0.336,2.199-1.881,2.44C457.595,148.091,457.15,148.054,456.697,147.934z"/>
		<path fill="#BE1E2D" d="M461.538,144.541c-0.01-0.071-0.013-0.107-0.022-0.178c-0.282-2.092,0.896-3.173,2.501-3.363
			c0.814-0.097,1.321-0.006,1.762,0.199c0.033,0.305,0.05,0.456,0.083,0.761c-0.574-0.178-0.99-0.276-1.801-0.18
			c-1.123,0.134-1.767,0.956-1.591,2.312c0.015,0.114,0.022,0.172,0.037,0.286c0.195,1.51,0.927,2.102,2.216,1.949
			c0.815-0.097,1.324-0.406,1.611-0.605c0.032,0.296,0.05,0.443,0.082,0.739c-0.364,0.269-0.873,0.565-1.709,0.665
			C462.987,147.329,461.799,146.478,461.538,144.541z"/>
		<path fill="#BE1E2D" d="M467.155,140.763c0.366-0.037,0.551-0.056,0.917-0.091c0.025,0.268,0.039,0.401,0.064,0.669
			c0.025-0.002,0.037-0.004,0.062-0.007c0.313-0.416,0.956-0.825,1.66-0.886c0.138-0.012,0.316-0.015,0.38-0.008
			c0.028,0.33,0.044,0.494,0.071,0.823c-0.164-0.01-0.354-0.006-0.455,0.003c-0.625,0.054-1.203,0.326-1.611,0.666
			c0.179,1.862,0.267,2.794,0.445,4.657c-0.374,0.036-0.561,0.053-0.935,0.091C467.515,144.313,467.396,143.13,467.155,140.763z"/>
		<path fill="#BE1E2D" d="M471.354,143.453c-0.005-0.067-0.008-0.1-0.013-0.167c-0.165-2.068,1.043-3.092,2.478-3.185
			c1.711-0.111,2.565,0.801,2.659,2.645c0.011,0.206,0.018,0.31,0.028,0.516c-1.671,0.085-2.509,0.137-4.179,0.261
			c0.16,1.479,0.922,1.996,2.217,1.915c0.807-0.05,1.333-0.27,1.872-0.55c0.015,0.273,0.021,0.41,0.035,0.683
			c-0.354,0.27-1.032,0.606-2.005,0.667C472.55,146.358,471.502,145.306,471.354,143.453z M472.275,142.793
			c1.279-0.095,1.92-0.137,3.2-0.209c-0.073-1.293-0.618-1.806-1.633-1.74C473.065,140.894,472.271,141.386,472.275,142.793z"/>
		<path fill="#BE1E2D" d="M478.396,144.579c-0.062-1.534-0.096-2.299-0.158-3.833c-0.356,0.015-0.532,0.021-0.888,0.037
			c-0.014-0.302-0.021-0.453-0.035-0.755c0.357-0.016,0.536-0.022,0.894-0.037c-0.023-0.565-0.034-0.85-0.058-1.415
			c0.386-0.016,0.58-0.023,0.966-0.037c0.021,0.566,0.029,0.849,0.05,1.414c0.64-0.023,0.958-0.032,1.598-0.049
			c0.008,0.302,0.012,0.453,0.02,0.755c-0.637,0.017-0.955,0.027-1.592,0.05c0.053,1.477,0.08,2.215,0.133,3.691
			c0.021,0.575,0.224,0.793,0.921,0.771c0.257-0.008,0.535-0.05,0.778-0.129c0.007,0.25,0.011,0.373,0.018,0.623
			c-0.241,0.115-0.493,0.254-1.018,0.271C479.074,145.966,478.437,145.586,478.396,144.579z"/>
		<path fill="#BE1E2D" d="M481.938,142.923c-0.001-0.067-0.001-0.101-0.002-0.168c-0.043-2.074,1.221-3.026,2.657-3.035
			c1.714-0.01,2.513,0.95,2.499,2.796c-0.002,0.207-0.002,0.31-0.004,0.517c-1.673-0.013-2.509-0.01-4.182,0.016
			c0.073,1.486,0.801,2.047,2.098,2.042c0.808-0.003,1.345-0.194,1.898-0.441c-0.002,0.273-0.001,0.412-0.003,0.685
			c-0.368,0.249-1.064,0.544-2.039,0.548C482.96,145.892,481.977,144.781,481.938,142.923z M482.895,142.316
			c1.282-0.02,1.925-0.023,3.207-0.021c0.003-1.295-0.513-1.839-1.529-1.833C483.794,140.468,482.973,140.912,482.895,142.316z"/>
		<path fill="#BE1E2D" d="M488.627,143.003c0.034-2.105,0.05-3.16,0.083-5.266c0.407,0.007,0.613,0.011,1.021,0.02
			c-0.045,2.087-0.069,3.13-0.114,5.217c-0.037,1.703,0.685,2.243,2.041,2.288s2.039-0.437,2.116-2.163
			c0.093-2.08,0.143-3.12,0.235-5.2c0.377,0.017,0.563,0.024,0.94,0.043c-0.104,2.099-0.155,3.149-0.259,5.248
			c-0.102,2.048-1.146,2.89-3.094,2.825C489.674,145.952,488.595,145.005,488.627,143.003z"/>
		<path fill="#BE1E2D" d="M496.785,140.159c0.367,0.022,0.551,0.034,0.918,0.058c-0.014,0.206-0.021,0.309-0.034,0.515
			c0.02,0.001,0.031,0.002,0.051,0.004c0.601-0.321,1.425-0.529,2.192-0.469c1.219,0.095,1.769,0.615,1.668,1.762
			c-0.154,1.768-0.233,2.653-0.388,4.422c-0.369-0.032-0.553-0.049-0.922-0.08c0.139-1.693,0.208-2.538,0.347-4.23
			c0.059-0.717-0.178-1.042-1.166-1.116c-0.589-0.044-1.255,0.114-1.782,0.308c-0.127,1.929-0.193,2.893-0.32,4.823
			c-0.37-0.024-0.552-0.034-0.922-0.057C496.57,143.723,496.643,142.534,496.785,140.159z"/>
		<path fill="#BE1E2D" d="M502.839,143.733c0.007-0.072,0.012-0.108,0.019-0.18c0.2-2.101,1.594-2.887,3.199-2.708
			c0.815,0.091,1.286,0.294,1.668,0.594c-0.037,0.305-0.054,0.456-0.091,0.761c-0.52-0.304-0.903-0.495-1.715-0.585
			c-1.124-0.125-1.934,0.531-2.07,1.892c-0.012,0.115-0.018,0.171-0.029,0.286c-0.152,1.515,0.423,2.256,1.714,2.4
			c0.815,0.091,1.383-0.094,1.708-0.223c-0.036,0.295-0.055,0.444-0.091,0.739c-0.416,0.179-0.977,0.352-1.812,0.259
			C503.617,146.777,502.654,145.68,502.839,143.733z"/>
		<path fill="#BE1E2D" d="M508.391,144.337c0.009-0.071,0.015-0.108,0.023-0.18c0.236-1.868,1.518-2.847,3.193-2.608
			c1.751,0.249,2.641,1.5,2.347,3.36c-0.011,0.066-0.018,0.1-0.028,0.166c-0.296,1.872-1.58,2.806-3.199,2.576
			C509.034,147.411,508.152,146.217,508.391,144.337z M512.955,145.034c0.018-0.119,0.027-0.179,0.045-0.298
			c0.25-1.636-0.504-2.297-1.513-2.44c-1.121-0.159-1.92,0.513-2.102,1.892c-0.016,0.119-0.024,0.177-0.04,0.295
			c-0.217,1.641,0.504,2.281,1.512,2.424C511.949,147.062,512.744,146.421,512.955,145.034z"/>
		<path fill="#BE1E2D" d="M515.839,142.311c0.364,0.061,0.546,0.091,0.909,0.154c-0.035,0.204-0.05,0.305-0.085,0.509
			c0.02,0.003,0.028,0.005,0.048,0.008c0.632-0.257,1.476-0.376,2.235-0.236c1.207,0.222,1.703,0.797,1.484,1.927
			c-0.338,1.743-0.509,2.614-0.847,4.357c-0.365-0.071-0.548-0.106-0.913-0.175c0.314-1.669,0.474-2.503,0.788-4.172
			c0.133-0.707-0.074-1.053-1.053-1.231c-0.583-0.105-1.263-0.019-1.809,0.119c-0.327,1.905-0.49,2.857-0.817,4.763
			c-0.366-0.063-0.549-0.093-0.916-0.154C515.254,145.832,515.449,144.658,515.839,142.311z"/>
		<path fill="#BE1E2D" d="M522.712,144.371c-0.36-0.074-0.541-0.112-0.901-0.185c0.06-0.296,0.087-0.442,0.146-0.739
			c0.362,0.073,0.543,0.109,0.905,0.184c0.069-0.338,0.108-0.509,0.179-0.848c0.264-1.28,1.194-1.665,2.324-1.419
			c0.489,0.106,0.808,0.277,1.01,0.433c-0.057,0.253-0.084,0.378-0.141,0.631c-0.18-0.077-0.432-0.183-0.857-0.276
			c-0.737-0.161-1.22,0.081-1.392,0.891c-0.066,0.314-0.1,0.473-0.166,0.788c0.564,0.12,0.844,0.18,1.407,0.304
			c-0.064,0.295-0.095,0.442-0.159,0.737c-0.562-0.124-0.843-0.183-1.405-0.302c-0.43,2.027-0.644,3.041-1.073,5.068
			c-0.369-0.078-0.556-0.117-0.925-0.193C522.083,147.415,522.293,146.4,522.712,144.371z"/>
	</g>
</g>
<path fill="none" d="M133.379,90.333c0,5.159,1.348,9.333,3.013,9.333"/>
<path fill="none" stroke="#000000" stroke-width="2" stroke-miterlimit="10" d="M457.705,192.979
	c3.225,3.011,6.755,4.462,7.892,3.245"/>
<path fill="none" stroke="#000000" stroke-width="2" stroke-miterlimit="10" d="M513.771,191.94
	c-3.225,3.011-6.755,4.462-7.892,3.245"/>
<path fill="none" stroke="#000000" stroke-width="2" stroke-miterlimit="10" d="M504.302,195.185c0,0,1.961,0,4.386,0"/>
<path fill="none" stroke="#000000" stroke-width="2" stroke-miterlimit="10" d="M461.516,195.718c0,0,1.927,0.363,4.31,0.812"/>
</svg>
